<?xml version="1.0" standalone="no"?>
<!DOCTYPE svg PUBLIC "-//W3C//DTD SVG 1.1//EN" "http://www.w3.org/Graphics/SVG/1.1/DTD/svg11.dtd" >
<svg xmlns="http://www.w3.org/2000/svg">
<metadata>Generated by IcoMoon</metadata>
<defs>
<font id="icomoon" horiz-adv-x="1024">
<font-face units-per-em="1024" ascent="870.4" descent="-153.6" />
<missing-glyph horiz-adv-x="1024" />
<glyph unicode="&#x20;" d="" />
<glyph unicode="&#xe800;" glyph-name="picture" d="M876.544 524.032h-102.4l-126.976 153.6-219.136-153.6h-184.32q-53.248 0-92.16-39.936t-38.912-93.184v-163.84l-110.592 303.104q-10.24 38.912 22.528 53.248l696.32 253.952q36.864 10.24 51.2-24.576zM985.088 431.872q16.384 0 27.648-12.288t11.264-28.672v-483.328q0-16.384-11.264-28.672t-27.648-12.288h-741.376q-16.384 0-27.648 12.288t-11.264 28.672v483.328q0 16.384 11.264 28.672t27.648 12.288h741.376zM927.744-30.976v165.888l-73.728 163.84-169.984-61.44-133.12-135.168-141.312 174.080-94.208-219.136v-88.064h612.352z" />
<glyph unicode="&#xe801;" glyph-name="trash" horiz-adv-x="804" d="M292.864 443.136v-328.704q0-8.192-5.12-13.312t-13.312-5.12h-36.864q-8.192 0-13.312 5.12t-5.12 13.312v328.704q0 8.192 5.12 13.312t13.312 5.12h36.864q8.192 0 13.312-5.12t5.12-13.312zM439.296 443.136v-328.704q0-8.192-5.12-13.312t-13.312-5.12h-36.864q-8.192 0-13.312 5.12t-5.12 13.312v328.704q0 8.192 5.12 13.312t13.312 5.12h36.864q8.192 0 13.312-5.12t5.12-13.312zM584.704 443.136v-328.704q0-8.192-5.12-13.312t-12.288-5.12h-36.864q-8.192 0-13.312 5.12t-5.12 13.312v328.704q0 8.192 5.12 13.312t13.312 5.12h36.864q7.168 0 12.288-5.12t5.12-13.312zM658.432 29.44v541.696h-512v-541.696q0-12.288 4.096-22.528t8.192-15.36 6.144-5.12h475.136q2.048 0 6.144 5.12t8.192 15.36 4.096 22.528zM274.432 644.864h256l-27.648 66.56q-4.096 5.12-9.216 6.144h-181.248q-6.144-1.024-10.24-6.144zM804.864 626.432v-36.864q0-8.192-5.12-13.312t-13.312-5.12h-55.296v-541.696q0-47.104-26.624-81.92t-64.512-34.816h-475.136q-37.888 0-64.512 33.792t-27.648 80.896v543.744h-54.272q-8.192 0-13.312 5.12t-5.12 13.312v36.864q0 8.192 5.12 13.312t13.312 5.12h176.128l39.936 95.232q9.216 21.504 31.744 35.84t45.056 15.36h182.272q22.528 0 45.056-15.36t30.72-35.84l39.936-95.232h177.152q8.192 0 13.312-5.12t5.12-13.312z" />
<glyph unicode="&#xe802;" glyph-name="search" horiz-adv-x="950" d="M658.432 388.864q0 105.472-75.776 180.224t-180.224 75.776-181.248-75.776-74.752-180.224 74.752-181.248 181.248-74.752 180.224 74.752 75.776 181.248zM951.296-87.296q0-29.696-22.528-51.2t-51.2-21.504q-30.72 0-51.2 21.504l-195.584 195.584q-102.4-70.656-228.352-70.656-81.92 0-156.672 31.744t-128 86.016-86.016 128-31.744 156.672 31.744 155.648 86.016 129.024 128 86.016 156.672 31.744 155.648-31.744 129.024-86.016 86.016-129.024 31.744-155.648q0-125.952-70.656-228.352l195.584-195.584q21.504-21.504 21.504-52.224z" />
<glyph unicode="&#xe803;" glyph-name="picture-1" horiz-adv-x="1097" d="M365.568 535.296q0-46.080-31.744-77.824t-77.824-32.768-77.824 32.768-31.744 77.824 31.744 76.8 77.824 32.768 77.824-32.768 31.744-76.8zM951.296 315.136v-256h-804.864v109.568l182.272 183.296 92.16-91.136 291.84 291.84zM1005.568 717.568h-914.432q-7.168 0-12.288-5.12t-6.144-13.312v-694.272q0-8.192 6.144-13.312t12.288-5.12h914.432q7.168 0 13.312 5.12t5.12 13.312v694.272q0 7.168-5.12 13.312t-13.312 5.12zM1096.704 699.136v-694.272q0-37.888-26.624-64.512t-64.512-27.648h-914.432q-36.864 0-64.512 27.648t-26.624 64.512v694.272q0 37.888 26.624 64.512t64.512 27.648h914.432q37.888 0 64.512-27.648t26.624-64.512z" />
<glyph unicode="&#xe804;" glyph-name="layers-alt" horiz-adv-x="950" d="M18.432 123.648l456.704-113.664 457.728 113.664v-113.664l-457.728-115.712-456.704 115.712v113.664zM18.432 353.024l456.704-114.688 457.728 114.688v-114.688l-457.728-114.688-456.704 114.688v114.688zM18.432 581.376l456.704-114.688 457.728 114.688v-114.688l-457.728-113.664-456.704 113.664v114.688zM18.432 809.728l456.704-114.688 457.728 114.688v-114.688l-457.728-113.664-456.704 113.664v114.688z" />
<glyph unicode="&#xe805;" glyph-name="video" horiz-adv-x="1097" d="M219.136-50.432v73.728q0 14.336-10.24 25.6t-25.6 10.24h-73.728q-14.336 0-25.6-10.24t-11.264-25.6v-73.728q0-14.336 11.264-25.6t25.6-11.264h73.728q14.336 0 25.6 11.264t10.24 25.6zM219.136 168.704v73.728q0 14.336-10.24 25.6t-25.6 11.264h-73.728q-14.336 0-25.6-11.264t-11.264-25.6v-73.728q0-14.336 11.264-25.6t25.6-10.24h73.728q14.336 0 25.6 10.24t10.24 25.6zM219.136 388.864v72.704q0 15.36-10.24 25.6t-25.6 11.264h-73.728q-14.336 0-25.6-11.264t-11.264-25.6v-72.704q0-15.36 11.264-25.6t25.6-11.264h73.728q14.336 0 25.6 11.264t10.24 25.6zM804.864-50.432v292.864q0 14.336-11.264 25.6t-25.6 11.264h-439.296q-14.336 0-25.6-11.264t-10.24-25.6v-292.864q0-14.336 10.24-25.6t25.6-11.264h439.296q15.36 0 25.6 11.264t11.264 25.6zM219.136 608v72.704q0 15.36-10.24 26.624t-25.6 10.24h-73.728q-14.336 0-25.6-10.24t-11.264-26.624v-72.704q0-15.36 11.264-25.6t25.6-11.264h73.728q14.336 0 25.6 11.264t10.24 25.6zM1024-50.432v73.728q0 14.336-11.264 25.6t-25.6 10.24h-72.704q-15.36 0-25.6-10.24t-11.264-25.6v-73.728q0-14.336 11.264-25.6t25.6-11.264h72.704q15.36 0 25.6 11.264t11.264 25.6zM804.864 388.864v291.84q0 15.36-11.264 26.624t-25.6 10.24h-439.296q-14.336 0-25.6-10.24t-10.24-26.624v-291.84q0-15.36 10.24-25.6t25.6-11.264h439.296q15.36 0 25.6 11.264t11.264 25.6zM1024 168.704v73.728q0 14.336-11.264 25.6t-25.6 11.264h-72.704q-15.36 0-25.6-11.264t-11.264-25.6v-73.728q0-14.336 11.264-25.6t25.6-10.24h72.704q15.36 0 25.6 10.24t11.264 25.6zM1024 388.864v72.704q0 15.36-11.264 25.6t-25.6 11.264h-72.704q-15.36 0-25.6-11.264t-11.264-25.6v-72.704q0-15.36 11.264-25.6t25.6-11.264h72.704q15.36 0 25.6 11.264t11.264 25.6zM1024 608v72.704q0 15.36-11.264 26.624t-25.6 10.24h-72.704q-15.36 0-25.6-10.24t-11.264-26.624v-72.704q0-15.36 11.264-25.6t25.6-11.264h72.704q15.36 0 25.6 11.264t11.264 25.6zM1096.704 699.136v-768q0-37.888-26.624-64.512t-64.512-26.624h-914.432q-36.864 0-64.512 26.624t-26.624 64.512v768q0 37.888 26.624 64.512t64.512 27.648h914.432q37.888 0 64.512-27.648t26.624-64.512z" />
<glyph unicode="&#xe806;" glyph-name="arrows-ccw" horiz-adv-x="840" d="M190.464 136.96l118.784 118.784v-299.008l-282.624 16.384 90.112 88.064q-118.784 124.928-116.736 296.96t122.88 294.912q102.4 102.4 245.76 118.784l4.096-104.448q-102.4-16.384-176.128-90.112-90.112-90.112-92.16-218.112t86.016-222.208zM530.432 749.312l282.624-16.384-90.112-88.064q118.784-124.928 116.736-296.96t-122.88-294.912q-98.304-100.352-245.76-120.832l-2.048 106.496q100.352 16.384 174.080 90.112 90.112 90.112 92.16 218.112t-86.016 222.208l-116.736-118.784z" />
<glyph unicode="&#xe807;" glyph-name="magic" horiz-adv-x="950" d="M679.936 532.224l167.936 166.912-61.44 61.44-167.936-167.936zM934.912 699.136q0-15.36-10.24-25.6l-734.208-735.232q-10.24-10.24-25.6-10.24t-25.6 10.24l-113.664 113.664q-10.24 10.24-10.24 25.6t10.24 25.6l735.232 735.232q10.24 10.24 25.6 10.24t25.6-10.24l112.64-113.664q10.24-10.24 10.24-25.6zM163.84 807.68l55.296-16.384-55.296-17.408-17.408-56.32-17.408 56.32-56.32 17.408 56.32 16.384 17.408 56.32zM363.52 715.52l111.616-34.816-111.616-33.792-34.816-111.616-33.792 111.616-111.616 33.792 111.616 34.816 33.792 111.616zM894.976 442.112l56.32-17.408-56.32-16.384-17.408-56.32-17.408 56.32-55.296 16.384 55.296 17.408 17.408 56.32zM529.408 807.68l55.296-16.384-55.296-17.408-17.408-56.32-17.408 56.32-55.296 17.408 55.296 16.384 17.408 56.32z" />
<glyph unicode="&#xe808;" glyph-name="ccw" horiz-adv-x="963" d="M544.768 747.264q174.080 0 295.936-122.88t121.856-296.96-121.856-296.96-295.936-122.88q-145.408 0-258.048 90.112l71.68 75.776q86.016-61.44 186.368-61.44 129.024 0 221.184 92.16t92.16 223.232-92.16 223.232-221.184 92.16q-126.976 0-219.136-89.088t-94.208-216.064h145.408l-188.416-208.896-188.416 208.896h126.976q2.048 169.984 124.928 289.792t292.864 119.808z" />
<glyph unicode="&#xe809;" glyph-name="doc" horiz-adv-x="854" d="M837.632 602.88q16.384-16.384 16.384-36.864v-533.504q0-66.56-47.104-113.664t-112.64-47.104h-534.528q-66.56 0-112.64 47.104t-47.104 113.664v640q0 66.56 47.104 112.64t112.64 47.104h427.008q22.528 0 37.888-15.36zM724.992 566.016l-138.24 137.216v-57.344q0-32.768 23.552-56.32t56.32-23.552h58.368zM694.272-21.76q21.504 0 36.864 16.384t15.36 37.888v480.256h-79.872q-54.272 0-94.208 38.912t-38.912 94.208v79.872h-373.76q-21.504 0-37.888-15.36t-15.36-37.888v-640q0-21.504 15.36-37.888t37.888-16.384h534.528z" />
<glyph unicode="&#xe80a;" glyph-name="cancel" horiz-adv-x="804" d="M741.376 108.288q0-22.528-15.36-38.912l-77.824-77.824q-16.384-15.36-38.912-15.36t-38.912 15.36l-167.936 168.96-167.936-168.96q-16.384-15.36-38.912-15.36t-38.912 15.36l-77.824 77.824q-16.384 16.384-16.384 38.912t16.384 38.912l167.936 167.936-167.936 167.936q-16.384 16.384-16.384 38.912t16.384 38.912l77.824 77.824q16.384 16.384 38.912 16.384t38.912-16.384l167.936-167.936 167.936 167.936q16.384 16.384 38.912 16.384t38.912-16.384l77.824-77.824q15.36-15.36 15.36-38.912t-15.36-38.912l-167.936-167.936 167.936-167.936q15.36-15.36 15.36-38.912z" />
<glyph unicode="&#xe80b;" glyph-name="export" d="M768 55.040v57.344l102.4 83.968v-192.512q0-20.48-15.36-35.84t-35.84-15.36h-768q-20.48 0-35.84 15.36t-15.36 35.84v563.2q0 22.528 14.336 36.864t36.864 14.336h294.912q-32.768-24.576-60.416-50.176t-39.936-39.936l-10.24-12.288h-133.12v-460.8h665.6zM684.032 411.392q-169.984 0-247.808-41.984t-163.84-185.344q0 8.192 1.024 22.528t9.216 57.344 22.528 80.896 45.056 84.992 71.68 80.896 109.568 57.344 152.576 23.552v159.744l339.968-256-339.968-266.24v182.272z" />
<glyph unicode="&#xe80c;" glyph-name="list-add" d="M358.4 403.2q22.528 0 36.864-15.36t14.336-35.84-15.36-35.84-35.84-15.36h-307.2q-20.48 0-35.84 15.36t-15.36 35.84 14.336 35.84 36.864 15.36h307.2zM358.4 198.4q22.528 0 36.864-15.36t14.336-35.84-15.36-35.84-35.84-15.36h-307.2q-20.48 0-35.84 15.36t-15.36 35.84 14.336 35.84 36.864 15.36h307.2zM993.28 403.2q30.72 0 30.72-51.2t-30.72-51.2h-174.080v-174.080q0-30.72-51.2-30.72t-51.2 30.72v174.080h-167.936q-30.72 0-30.72 51.2t30.72 51.2h167.936v174.080q0 30.72 51.2 30.72t51.2-30.72v-174.080h174.080zM358.4 608q22.528 0 36.864-15.36t14.336-35.84-15.36-35.84-35.84-15.36h-307.2q-20.48 0-35.84 15.36t-15.36 35.84 14.336 35.84 36.864 15.36h307.2z" />
<glyph unicode="&#xe80f;" glyph-name="info-circled" horiz-adv-x="878" d="M584.704 77.568v91.136q0 8.192-5.12 13.312t-12.288 5.12h-55.296v292.864q0 8.192-5.12 13.312t-13.312 5.12h-182.272q-8.192 0-13.312-5.12t-5.12-13.312v-91.136q0-8.192 5.12-13.312t13.312-5.12h54.272v-183.296h-54.272q-8.192 0-13.312-5.12t-5.12-13.312v-91.136q0-8.192 5.12-13.312t13.312-5.12h256q7.168 0 12.288 5.12t5.12 13.312zM512 589.568v91.136q0 8.192-5.12 13.312t-13.312 5.12h-109.568q-8.192 0-13.312-5.12t-5.12-13.312v-91.136q0-8.192 5.12-13.312t13.312-5.12h109.568q8.192 0 13.312 5.12t5.12 13.312zM877.568 352q0-119.808-58.368-220.16t-159.744-159.744-220.16-59.392-221.184 59.392-158.72 159.744-59.392 220.16 59.392 220.16 158.72 159.744 221.184 59.392 220.16-59.392 159.744-159.744 58.368-220.16z" />
<glyph unicode="&#xe817;" glyph-name="left-dir" horiz-adv-x="366" d="M365.568 608v-512q0-14.336-10.24-25.6t-26.624-11.264-25.6 11.264l-256 256q-10.24 11.264-10.24 25.6t10.24 25.6l256 256q11.264 11.264 25.6 11.264t26.624-11.264 10.24-25.6z" />
<glyph unicode="&#xe818;" glyph-name="right-dir" horiz-adv-x="366" d="M328.704 352q0-14.336-10.24-25.6l-256-256q-11.264-11.264-25.6-11.264t-25.6 11.264-11.264 25.6v512q0 15.36 11.264 25.6t25.6 11.264 25.6-11.264l256-256q10.24-10.24 10.24-25.6z" />
<glyph unicode="&#xe819;" glyph-name="left-open" horiz-adv-x="657" d="M423.936-35.072l-372.736 372.736q-20.48 20.48-20.48 51.2t20.48 52.224l372.736 371.712q21.504 20.48 52.224 20.48t51.2-20.48l43.008-43.008q21.504-21.504 21.504-52.224t-21.504-51.2l-277.504-277.504 277.504-277.504q21.504-21.504 21.504-52.224t-21.504-51.2l-43.008-43.008q-21.504-20.48-51.2-20.48t-52.224 20.48z" />
<glyph unicode="&#xe81a;" glyph-name="right-open" horiz-adv-x="657" d="M627.712 388.864q0-29.696-20.48-52.224l-372.736-371.712q-21.504-21.504-51.2-21.504t-52.224 21.504l-43.008 43.008q-21.504 21.504-21.504 51.2 0 30.72 21.504 52.224l277.504 277.504-277.504 276.48q-21.504 22.528-21.504 52.224 0 30.72 21.504 51.2l43.008 43.008q20.48 21.504 52.224 21.504t51.2-21.504l372.736-371.712q20.48-21.504 20.48-51.2z" />
<glyph unicode="&#xe81d;" glyph-name="angle-right" horiz-adv-x="366" d="M339.968 315.136q0-7.168-6.144-13.312l-266.24-266.24q-5.12-5.12-12.288-5.12t-13.312 5.12l-28.672 28.672q-6.144 6.144-6.144 13.312t6.144 13.312l224.256 224.256-224.256 225.28q-6.144 5.12-6.144 12.288t6.144 13.312l28.672 28.672q5.12 6.144 13.312 6.144t12.288-6.144l266.24-266.24q6.144-5.12 6.144-13.312z" />
<glyph unicode="&#xe81e;" glyph-name="right-big" horiz-adv-x="878" d="M840.704 315.136q0-30.72-20.48-51.2l-371.712-372.736q-22.528-20.48-52.224-20.48t-51.2 20.48l-43.008 43.008q-22.528 21.504-22.528 52.224t22.528 52.224l166.912 166.912h-402.432q-29.696 0-48.128 21.504t-18.432 52.224v72.704q0 30.72 18.432 52.224t48.128 20.48h402.432l-166.912 167.936q-22.528 21.504-22.528 52.224t22.528 51.2l43.008 43.008q21.504 21.504 51.2 21.504t52.224-21.504l371.712-371.712q20.48-20.48 20.48-52.224z" />
<glyph unicode="&#xe81f;" glyph-name="left-big" horiz-adv-x="878" d="M877.568 352v-72.704q0-30.72-18.432-52.224t-48.128-21.504h-402.432l167.936-167.936q21.504-20.48 21.504-51.2t-21.504-51.2l-43.008-44.032q-21.504-20.48-52.224-20.48-29.696 0-51.2 20.48l-372.736 372.736q-20.48 21.504-20.48 51.2t20.48 52.224l372.736 371.712q21.504 21.504 51.2 21.504t52.224-21.504l43.008-43.008q21.504-21.504 21.504-51.2t-21.504-52.224l-167.936-167.936h402.432q29.696 0 48.128-20.48t18.432-52.224z" />
<glyph unicode="&#xe820;" glyph-name="angle-left" horiz-adv-x="366" d="M358.4 552.704q0-7.168-6.144-12.288l-224.256-225.28 224.256-224.256q6.144-6.144 6.144-13.312t-6.144-13.312l-28.672-28.672q-5.12-5.12-12.288-5.12t-13.312 5.12l-266.24 266.24q-6.144 6.144-6.144 13.312t6.144 13.312l266.24 266.24q5.12 6.144 13.312 6.144t12.288-6.144l28.672-28.672q6.144-5.12 6.144-13.312z" />
<glyph unicode="&#xe822;" glyph-name="left-open-mini" horiz-adv-x="271" d="M258.048 177.92q26.624-26.624 0-49.152-26.624-26.624-49.152 0l-196.608 198.656q-24.576 24.576 0 51.2l196.608 198.656q22.528 26.624 49.152 0 26.624-22.528 0-49.152l-159.744-176.128z" />
<glyph unicode="&#xe823;" glyph-name="right-open-mini" horiz-adv-x="271" d="M13.312 177.92l161.792 174.080-161.792 176.128q-26.624 26.624 0 49.152 26.624 26.624 49.152 0l196.608-198.656q24.576-26.624 0-51.2l-196.608-198.656q-22.528-26.624-49.152 0-26.624 22.528 0 49.152z" />
<glyph unicode="&#xe824;" glyph-name="left-open-big" horiz-adv-x="476" d="M462.848-26.88q26.624-26.624 0-49.152-26.624-26.624-49.152 0l-401.408 403.456q-24.576 24.576 0 51.2l401.408 403.456q22.528 26.624 49.152 0 26.624-22.528 0-49.152l-366.592-380.928z" />
<glyph unicode="&#xe825;" glyph-name="right-open-big" horiz-adv-x="476" d="M13.312-26.88l366.592 378.88-366.592 380.928q-26.624 26.624 0 49.152 26.624 26.624 49.152 0l401.408-403.456q24.576-26.624 0-51.2l-401.408-403.456q-22.528-26.624-49.152 0-26.624 22.528 0 49.152z" />
<glyph unicode="&#xe826;" glyph-name="right" horiz-adv-x="748" d="M358.4 689.92l389.12-337.92-389.12-337.92v196.608h-358.4v284.672h358.4v194.56z" />
<glyph unicode="&#xe827;" glyph-name="arrow-combo" horiz-adv-x="471" d="M235.52 864l235.52-372.736h-471.040zM235.52-160l-235.52 374.784h471.040z" />
<glyph unicode="&#xe828;" glyph-name="popup" horiz-adv-x="819" d="M716.8 761.6q43.008 0 72.704-29.696t29.696-72.704v-409.6q0-40.96-29.696-71.68t-72.704-30.72h-409.6q-40.96 0-71.68 30.72t-30.72 71.68v411.648q0 40.96 29.696 70.656t72.704 29.696h409.6zM716.8 249.6v409.6h-409.6v-409.6h409.6zM102.4 352v-307.2h307.2v-102.4h-307.2q-40.96 0-71.68 30.72t-30.72 71.68v307.2h102.4z" />
<glyph unicode="&#xe829;" glyph-name="palette" horiz-adv-x="1004" d="M877.568 630.528q73.728-49.152 103.424-112.64t20.48-106.496-35.84-49.152q-16.384-4.096-55.296 10.24t-81.92 10.24-81.92-47.104q-30.72-47.104-21.504-76.8t34.816-66.56 23.552-51.2q-2.048-26.624-36.864-64.512t-129.024-75.776-221.184-37.888q-190.464 0-297.984 103.424t-97.28 250.88q8.192 120.832 106.496 240.64t221.184 154.624q296.96 86.016 548.864-81.92zM551.936 153.344q30.72 0 53.248 22.528t22.528 55.296-22.528 54.272-53.248 21.504q-32.768 0-55.296-21.504t-22.528-54.272 22.528-55.296 55.296-22.528z" />
<glyph unicode="&#xe82a;" glyph-name="left-open-1" horiz-adv-x="349" d="M247.808 634.624q14.336 16.384 39.936 16.384t41.984-16.384q38.912-36.864 0-81.92l-190.464-200.704 190.464-198.656q38.912-45.056 0-81.92-16.384-16.384-40.96-16.384t-40.96 16.384l-231.424 241.664q-16.384 16.384-16.384 38.912 0 24.576 16.384 40.96 210.944 219.136 231.424 241.664z" />
<glyph unicode="&#xe82b;" glyph-name="right-open-1" horiz-adv-x="348" d="M100.352 634.624l231.424-241.664q16.384-16.384 16.384-40.96 0-22.528-16.384-38.912l-231.424-241.664q-16.384-16.384-40.96-16.384t-40.96 16.384q-36.864 36.864 0 81.92l190.464 198.656-190.464 200.704q-36.864 45.056 0 81.92 16.384 16.384 41.984 16.384t39.936-16.384z" />
<glyph unicode="&#xe82c;" glyph-name="left-open-2" horiz-adv-x="525" d="M492.544 694.016q32.768-31.744 32.768-75.776t-32.768-75.776l-190.464-190.464 190.464-190.464q32.768-31.744 32.768-75.776t-32.768-75.776-74.752-31.744-75.776 31.744l-342.016 342.016 342.016 342.016q30.72 31.744 75.776 31.744t74.752-31.744z" />
<glyph unicode="&#xe82d;" glyph-name="right-open-2" horiz-adv-x="526" d="M31.744 694.016q30.72 31.744 75.776 31.744t75.776-31.744l343.040-342.016-343.040-342.016q-31.744-31.744-75.776-31.744t-75.776 31.744-31.744 75.776 31.744 75.776l192.512 190.464-192.512 190.464q-31.744 32.768-31.744 75.776t31.744 75.776z" />
<glyph unicode="&#xe82e;" glyph-name="left-open-outline" horiz-adv-x="653" d="M653.312 86.784q0-65.536-48.128-113.664t-112.64-47.104q-66.56 0-112.64 46.080l-379.904 380.928 379.904 379.904q45.056 45.056 113.664 45.056t113.664-45.056q46.080-46.080 46.080-113.664 0-66.56-46.080-112.64l-153.6-153.6 153.6-153.6q46.080-46.080 46.080-112.64zM151.552 353.024l304.128-305.152q15.36-15.36 37.888-15.36t37.888 15.36 15.36 38.912q0 21.504-15.36 36.864l-229.376 229.376 229.376 228.352q15.36 15.36 15.36 37.888t-15.36 37.888-37.888 15.36-37.888-15.36z" />
<glyph unicode="&#xe82f;" glyph-name="right-open-outline" horiz-adv-x="653" d="M159.744-73.984q-64.512 0-112.64 47.104t-47.104 113.664 47.104 112.64l153.6 153.6-153.6 153.6q-47.104 47.104-47.104 112.64 0 66.56 47.104 113.664 45.056 45.056 112.64 45.056t112.64-45.056l380.928-379.904-380.928-380.928q-46.080-46.080-112.64-46.080zM159.744 672.512q-21.504 0-37.888-16.384t-15.36-36.864q0-20.48 16.384-37.888l228.352-228.352-228.352-229.376q-16.384-16.384-16.384-36.864 0-22.528 16.384-38.912 15.36-15.36 36.864-15.36t37.888 15.36l304.128 305.152-304.128 304.128q-15.36 15.36-37.888 15.36z" />
<glyph unicode="&#xe831;" glyph-name="pencil-1" horiz-adv-x="850" d="M814.080 742.144c51.2-47.104 45.056-120.832-4.096-168.96l-47.104-47.104s35.84 54.272-37.888 125.952c-65.536 65.536-126.976 37.888-126.976 37.888l50.176 49.152c44.032 46.080 122.88 46.080 165.888 3.072zM722.944 486.144l-503.808-504.832-215.040-52.224-4.096 4.096 56.32 215.040 504.832 501.76c8.192 2.048 30.72 9.216 61.44 2.048l-535.552-534.528-15.36-56.32 61.44-61.44 57.344 15.36 25.6 24.576 3.072 57.344-40.96 40.96 490.496 490.496c7.168-7.168 7.168-7.168 15.36-15.36 72.704-71.68 38.912-126.976 38.912-126.976z" />
<glyph unicode="&#xe832;" glyph-name="cog" horiz-adv-x="860" d="M778.24 352q0-73.728 81.92-124.928-12.288-40.96-34.816-83.968-71.68 18.432-139.264-45.056-55.296-59.392-34.816-139.264-40.96-20.48-86.016-36.864-47.104 83.968-135.168 83.968t-135.168-83.968q-45.056 16.384-86.016 36.864 20.48 81.92-34.816 139.264-55.296 55.296-139.264 34.816-14.336 26.624-34.816 83.968 83.968 53.248 83.968 135.168 0 73.728-83.968 126.976 20.48 57.344 34.816 83.968 75.776-18.432 139.264 45.056 55.296 57.344 34.816 139.264 43.008 22.528 86.016 34.816 47.104-81.92 135.168-81.92t135.168 81.92q43.008-12.288 86.016-34.816-20.48-79.872 34.816-139.264 67.584-63.488 139.264-45.056 22.528-43.008 34.816-83.968-81.92-51.2-81.92-126.976zM430.080 165.632q77.824 0 132.096 54.272t54.272 132.096-54.272 133.12-132.096 55.296-132.096-55.296-54.272-133.12 54.272-132.096 132.096-54.272z" />
<glyph unicode="&#xe833;" glyph-name="login" horiz-adv-x="922" d="M819.2 812.8q43.008 0 72.704-29.696t29.696-72.704v-716.8q0-40.96-29.696-71.68t-72.704-30.72h-460.8q-40.96 0-70.656 30.72t-29.696 71.68v102.4h100.352v-102.4h460.8v716.8h-460.8v-153.6h-100.352v153.6q0 43.008 29.696 72.704t70.656 29.696h460.8zM460.8 126.72v122.88h-460.8v153.6h460.8v122.88l204.8-198.656z" />
<glyph unicode="&#xe834;" glyph-name="logout" horiz-adv-x="922" d="M514.048-6.4v102.4h100.352v-102.4q0-40.96-29.696-71.68t-72.704-30.72h-409.6q-40.96 0-71.68 30.72t-30.72 71.68v716.8q0 43.008 30.72 72.704t71.68 29.696h409.6q43.008 0 72.704-29.696t29.696-72.704v-153.6h-100.352v153.6h-411.648v-716.8h411.648zM921.6 327.424l-202.752-200.704v122.88h-460.8v153.6h460.8v122.88z" />
<glyph unicode="&#xe836;" glyph-name="left" horiz-adv-x="748" d="M387.072 14.080l-387.072 337.92 387.072 337.92v-194.56h360.448v-284.672h-360.448v-196.608z" />
<glyph unicode="&#xe83a;" glyph-name="equalizer" horiz-adv-x="950" d="M589.824 238.336v-114.688h-56.32v-171.008q0-23.552-17.408-40.96t-39.936-17.408-39.936 17.408-17.408 40.96v171.008h-57.344v114.688h57.344v515.072q0 24.576 17.408 39.936t38.912 16.384q24.576 0 41.984-16.384t16.384-39.936v-515.072h56.32zM932.864 581.376v-114.688h-56.32v-514.048q0-23.552-16.384-40.96t-41.984-17.408q-23.552 0-39.936 17.408t-16.384 40.96v514.048h-57.344v114.688h57.344v172.032q0 24.576 16.384 39.936t39.936 16.384 41.984-16.384 16.384-39.936v-172.032h56.32zM246.784 466.688v-113.664h-56.32v-400.384q0-23.552-16.384-40.96t-40.96-17.408q-23.552 0-39.936 17.408t-17.408 40.96v400.384h-57.344v113.664h57.344v286.72q0 24.576 16.384 39.936t40.96 16.384 40.96-16.384 16.384-39.936v-286.72h56.32z" />
<glyph unicode="&#xe83b;" glyph-name="down-open" horiz-adv-x="950" d="M920.576 461.568q0-29.696-21.504-51.2l-371.712-371.712q-21.504-22.528-52.224-22.528t-51.2 22.528l-371.712 371.712q-21.504 20.48-21.504 51.2t21.504 52.224l41.984 43.008q22.528 20.48 52.224 20.48t51.2-20.48l277.504-277.504 277.504 277.504q21.504 20.48 52.224 20.48 29.696 0 51.2-20.48l43.008-43.008q21.504-22.528 21.504-52.224z" />
<glyph unicode="&#xe900;" glyph-name="photo" d="M514.214 854c-277.268 0-501.996-224.73-501.996-501.996s224.728-502.004 501.996-502.004 501.996 224.74 501.996 502.004c0 277.266-224.73 501.996-501.996 501.996zM514.214 812.166c253.736 0 460.164-206.428 460.164-460.164 0-111.63-39.994-214.086-106.38-293.852-45.878 19.16-154.178 56.744-221.218 76.538-5.718 1.796-6.618 2.084-6.618 25.88 0 19.652 8.088 39.442 15.974 56.192 8.538 18.2 18.668 48.798 22.306 76.252 10.172 11.808 24.020 35.094 32.926 79.478 7.802 39.118 4.166 53.354-1.020 66.714-0.532 1.41-1.104 2.798-1.512 4.188-1.962 9.172 0.734 56.826 7.436 93.798 4.616 25.37-1.186 79.316-36.114 123.944-22.060 28.21-64.262 62.832-141.35 67.652l-42.282-0.040c-75.782-4.782-118.024-39.402-140.084-67.612-34.928-44.63-40.728-98.576-36.112-123.926 6.74-36.99 9.396-84.644 7.476-93.632-0.408-1.572-0.98-2.962-1.552-4.372-5.148-13.36-8.824-27.596-0.98-66.714 8.864-44.384 22.714-67.672 32.926-79.478 3.596-27.452 13.728-58.052 22.306-76.252 6.25-13.318 9.192-31.436 9.192-57.050 0-23.796-0.9-24.084-6.252-25.778-69.326-20.468-179.668-60.34-220.808-78.356-67.692 80.132-108.586 183.57-108.586 296.424-0.002 253.74 206.426 460.166 460.162 460.166zM192.948 22.968c47.104 19.23 141.024 52.73 202.71 70.95 35.87 11.316 35.87 41.526 35.87 65.792 0 20.12-1.388 49.78-13.154 74.862-8.090 17.178-17.324 46.634-19.364 69.694-0.45 5.392-2.982 10.376-7.068 13.93-5.924 5.19-17.976 24.186-25.656 62.504-6.086 30.334-3.512 36.972-1.020 43.386 1.062 2.738 2.084 5.434 2.902 8.478 5.024 18.362-0.574 78.682-6.66 112.14-2.654 14.544 0.694 55.866 27.902 90.674 24.388 31.19 61.318 48.574 108.422 51.576l39.668 0.042c48.37-3.044 85.3-20.428 109.73-51.618 27.208-34.808 30.518-76.13 27.86-90.692-6.046-33.44-11.684-93.758-6.66-112.1 0.86-3.064 1.838-5.76 2.902-8.498 2.494-6.412 5.066-13.052-0.98-43.386-7.678-38.32-19.772-57.316-25.696-62.504-4.044-3.554-6.576-8.538-7.068-13.93-2.002-23.060-11.234-52.516-19.322-69.694-9.274-19.712-19.936-45.96-19.936-74.004 0-24.268 0-54.478 36.236-65.896 59.032-17.444 153.402-49.86 203.242-69.46-83.216-82.398-197.562-133.382-323.594-133.382-124.886 0-238.252 50.084-321.266 131.136z" />
<glyph unicode="&#xe901;" glyph-name="find" d="M1007.732-91.948l-285.816 285.844c57.45 69.088 92.034 157.824 92.034 254.672 0 220.168-178.454 398.624-398.624 398.624-220.128 0.002-398.624-178.454-398.624-398.622 0-220.128 178.496-398.624 398.624-398.624 96.87 0 185.584 34.584 254.672 92.034l285.816-285.844 51.918 51.916zM58.662 448.57c0 196.668 159.974 356.664 356.664 356.664 196.65 0 356.664-159.996 356.664-356.664s-160.014-356.664-356.664-356.664c-196.69 0-356.664 159.994-356.664 356.664z" />
<glyph unicode="&#xe902;" glyph-name="delete" d="M889.704 730.184h-198.678v39.736c0 43.886-35.584 79.472-79.472 79.472h-198.678c-43.888 0-79.472-35.586-79.472-79.472v-39.736h-198.678v-39.736h40.94l39.774-754.978c0-43.888 35.584-79.472 79.472-79.472h437.092c43.888 0 79.472 35.584 79.472 79.472l39.076 754.978h39.154v39.736zM373.14 769.92c0 21.924 17.852 39.736 39.736 39.736h198.678c21.924 0 39.736-17.812 39.736-39.736v-39.736h-278.15v39.736zM771.816-62.472l-0.078-1.010v-1.048c0-21.886-17.812-39.736-39.736-39.736h-437.092c-21.884 0-39.736 17.85-39.736 39.736v1.048l-0.038 1.046-39.696 752.884h595.338l-38.962-752.92zM492.346 610.978h39.736v-635.77h-39.736v635.77zM413.768-23.514l-40.666 634.528-39.658-2.52 40.668-634.528zM691.298 609.736l-39.658 2.482-40.086-635.77 39.658-2.482z" />
<glyph unicode="&#xe903;" glyph-name="message" d="M969.496 671.282h-955.060v-637.17h995.564v637.17h-40.504zM929.674 631.458l-384.616-384.614c-17.538-17.538-48.146-17.538-65.684 0l-384.674 384.614h834.974zM54.256 615.594l258.574-258.536-258.574-258.576v517.112zM86.028 73.942l254.978 254.94 110.212-110.194c16.276-16.296 37.956-25.28 60.998-25.28s44.722 8.984 60.998 25.28l110.212 110.212 254.958-254.958h-852.356zM970.178 98.462l-258.576 258.594 258.574 258.594v-517.188z" />
<glyph unicode="&#xe904;" glyph-name="eye" d="M512.216 651.96c-182.78 0-325.26-114.404-500-299.886 150.554-158.596 276.888-300.106 500-300.106s387.094 179.144 500 296.754c-115.576 137.776-279.572 303.238-500 303.238zM512.216 85.302c-198.064 0-317.626 122.844-454.036 266.74 162.304 169.238 291.358 266.584 454.036 266.584 192.594 0 343.114-138.884 455.11-268.57-110.14-114.842-259.26-264.754-455.11-264.754zM512.216 551.946c-110.286 0-200-89.714-200-199.984s89.714-199.984 200-199.984 200 89.714 200 199.984-89.712 199.984-200 199.984zM512.216 185.31c-91.896 0-166.666 74.756-166.666 166.65s74.772 166.652 166.666 166.652 166.666-74.756 166.666-166.652c0.002-91.894-74.77-166.65-166.666-166.65zM512.216 468.626c-64.324 0-116.666-52.344-116.666-116.666s52.344-116.666 116.666-116.666c64.324 0 116.666 52.346 116.666 116.666 0.002 64.324-52.342 116.666-116.666 116.666zM512.216 268.626c-45.946 0-83.334 37.386-83.334 83.334s37.386 83.334 83.334 83.334 83.334-37.384 83.334-83.334c0-45.946-37.386-83.334-83.334-83.334z" />
<glyph unicode="&#xe905;" glyph-name="time" d="M512.216 856.696c-278.332 0-504-225.668-504-504 0-278.334 225.668-504 504-504s504 225.666 504 504c0 278.332-225.668 504-504 504zM512.216-109.304c-254.748 0-462 207.252-462 462 0 254.746 207.252 462 462 462s462-207.254 462-462c0-254.75-207.25-462-462-462zM512.216 310.696h-252v-42h294v418.276h-42z" />
<glyph unicode="&#xe906;" glyph-name="send" d="M379.094 215.308l175.232-352.608 447.834 980-979.886-470.286 356.82-157.106zM389.508 253.514l-273.54 120.432 751.23 360.532-477.69-480.964zM552.872-46.766l-135.574 272.832 481.942 485.214-346.368-758.046z" />
<glyph unicode="&#xe907;" glyph-name="add" d="M512.216 857.96c-279.486 0-506-226.514-506-506s226.514-505.99 506-505.99c279.486 0 506 226.504 506 505.99s-226.512 506-506 506zM512.216-113.55c-256.676 0-465.52 208.834-465.52 465.51 0 256.678 208.844 465.52 465.52 465.52s465.52-208.842 465.52-465.52c0-256.676-208.844-465.51-465.52-465.51zM532.456 655.56h-40.48v-283.36h-282.016v-40.48h282.016v-282.016h40.48v282.016h283.36v40.48h-283.36z" />
<glyph unicode="&#xe908;" glyph-name="back" d="M452.114 652.886v-163.238l39.402-0.388c273.706-2.642 427.89-124.382 468.050-371.084-150.358 173.924-323.736 174-467.642 174.040h-39.81v-161.84l-368.846 261.274 368.846 261.236zM491.904 729.86l-477.472-338.21 477.472-338.21v198.986c191.098-0.078 368.266-9.714 518.096-276.894 0 169.688-28.036 548.774-518.096 553.516v200.812z" />
<glyph unicode="&#xe909;" glyph-name="cross" d="M512 850c-275.066 0-498-222.936-498-498.004 0-275.062 222.934-497.996 498-497.996s498 222.934 498 497.996c0 275.068-222.934 498.004-498 498.004zM512-106.16c-252.62 0-458.16 205.542-458.16 458.156 0 252.62 205.54 458.164 458.16 458.164 252.618 0 458.16-205.542 458.16-458.164 0-252.614-205.542-458.156-458.16-458.156zM737.090 549.854l-28.168 28.17-197.196-197.198-196.26 196.262-28.17-28.168 196.264-196.264-196.264-196.274 28.17-28.168 196.26 196.286 197.196-197.222 28.168 28.172-197.196 197.206z" />
<glyph unicode="&#xe90a;" glyph-name="camera" d="M932.976 613.172h-165.732l-96.348 96.582c-0.116 0.116-0.214 0.194-0.312 0.312l-0.176 0.156c-14.478 14.322-34.358 23.168-56.332 23.168h-200.37c-23.284 0-44.044-10.058-58.702-25.908l-0.078 0.234-94.352-94.546h-169.136c-44.26 0-80.146-35.888-80.146-80.146v-480.878c0-44.26 35.886-80.146 80.146-80.146h841.538c44.28 0 80.166 35.886 80.166 80.146v480.878c0 44.26-35.886 80.148-80.166 80.148zM973.068 52.146c0-22.072-18.002-40.074-40.094-40.074h-841.536c-22.090 0-40.074 18-40.074 40.074v480.878c0 22.11 17.982 40.074 40.074 40.074h185.748l60.266 60.382 0.98-2.936 46.002 49.74c7.786 8.414 18.178 13.032 29.272 13.032h200.366c10.586 0 20.604-4.11 28.45-11.858l108.088-108.362h182.364c22.090 0 40.094-17.962 40.094-40.074v-480.876zM512.206 573.098c-143.856 0-260.476-116.58-260.476-260.438s116.62-260.514 260.476-260.514 260.476 116.658 260.476 260.514-116.618 260.438-260.476 260.438zM512.206 92.22c-121.53 0-220.402 98.89-220.402 220.44 0 121.512 98.872 220.364 220.402 220.364s220.402-98.852 220.402-220.364c0.002-121.55-98.872-220.44-220.402-220.44zM512.206 492.952c-99.616 0-180.33-80.696-180.33-180.292s80.714-180.368 180.33-180.368 180.33 80.772 180.33 180.368-80.714 180.292-180.33 180.292zM512.206 172.366c-77.33 0-140.256 62.964-140.256 140.294s62.926 140.218 140.256 140.218 140.256-62.888 140.256-140.218-62.926-140.294-140.256-140.294z" />
<glyph unicode="&#xe90b;" glyph-name="link" d="M307.2 300.8h409.6v102.4h-409.6v-102.4zM97.28 352c0 117.76 92.16 209.92 209.92 209.92h153.6v97.28h-153.6c-168.96 0-307.2-138.24-307.2-307.2s138.24-307.2 307.2-307.2h153.6v97.28h-153.6c-117.76 0-209.92 92.16-209.92 209.92v0zM716.8 659.2h-153.6v-97.28h153.6c117.76 0 209.92-92.16 209.92-209.92s-92.16-209.92-209.92-209.92h-153.6v-97.28h153.6c168.96 0 307.2 138.24 307.2 307.2s-138.24 307.2-307.2 307.2v0z" />
<glyph unicode="&#xe90c;" glyph-name="add2" d="M1024 376.381h-487.619v487.619h-48.762v-487.619h-487.619v-48.762h487.619v-487.619h48.762v487.619h487.619z" />
<glyph unicode="&#xe90d;" glyph-name="arrows" d="M1014.176 604.912l0.032 0.032c0.032 0.048 0.064 0.096 0.096 0.16 2.752 3.12 4.768 6.88 6.384 10.848 0.512 1.216 0.848 2.368 1.216 3.6 0.928 3.056 1.504 6.224 1.696 9.536 0.096 1.216 0.288 2.368 0.256 3.616 0 0.64 0.16 1.216 0.128 1.84-0.224 3.824-0.992 7.52-2.176 10.992-0.096 0.368-0.352 0.656-0.48 1.024-1.408 3.824-3.424 7.216-5.808 10.32-0.336 0.432-0.448 1.008-0.8 1.44l-164.976 194.336c-12.624 14.88-33.344 15.168-46.304 0.592-12.928-14.56-13.168-38.432-0.512-53.344l88.928-104.784c-129.936 17.216-257.664-10.128-263.696-11.472-394.336-71.472-673.392-435.632-622.080-811.776 2.544-18.624 16.448-31.872 32.304-31.872 1.696 0 3.392 0.144 5.12 0.432 17.856 3.248 30.048 22.544 27.264 43.136-45.712 335.040 208.896 660.512 568.592 725.728 1.648 0.384 133.616 28.704 257.872 9.184l-137.232-81.488c-16.080-9.568-22.368-32.32-14.096-50.832 8.256-18.544 27.968-25.728 44.096-16.272l216.32 128.448c2.928 1.776 5.552 4 7.856 6.576z" />
<glyph unicode="&#xe90e;" glyph-name="arrows-1" d="M743.156 632.843l-45.612-45.614 202.973-202.975h-900.517v-64.509h900.517l-202.973-202.973 45.612-45.614 280.844 280.844z" />
<glyph unicode="&#xe90f;" glyph-name="arrows-2" d="M1024 352.003l-163.881 163.879v-131.626h-860.119v-64.509h860.119v-131.628z" />
<glyph unicode="&#xe910;" glyph-name="arrows-3" d="M64 288v128h704v128l192-192-192-192v128z" />
<glyph unicode="&#xe911;" glyph-name="art" d="M613.551 116.589c-19.776 3.869-34.094 21.197-34.094 41.354 0 10.377-3.016 20.323-8.508 29.573-11.621-18.94-27.237-36.337-46.277-51.342-48.569-38.3-134.807-83.024-218.007-83.024-24.837 0-48.316 3.963-69.776 11.777-27.282 9.936-46.461 35.051-48.864 63.969-2.41 28.928 12.356 56.862 37.617 71.163 56.852 32.212 75.171 75.119 91.331 112.975 2.222 5.197 4.459 10.422 6.792 15.601-18.788 11.105-41.781 17.661-66.635 17.661-63.366 0-114.74-42.47-114.74-94.857v-0.021c0.003-11.659-8.303-21.606-19.772-23.721-70.775-13.046-122.617-55.264-122.617-105.361 0-50.081 51.817-92.298 122.572-105.358 11.472-2.115 19.824-12.117 19.821-23.783 0-0.007 0-0.014 0-0.014 0-71.343 76.575-129.176 171.030-129.176 66.341 0 123.834 28.53 152.19 70.227 10.63 15.633 29.147 24.071 47.921 21.821 12.54-1.505 25.628-2.299 39.083-2.299 92.7 0 167.843 37.738 167.843 84.296 0.003 35.751-44.336 66.296-106.908 78.537zM1015.898 829.868c-11.597 12.686-31.283 13.57-43.968 1.973-5.204-4.757-468.056-427.846-476.245-435.342l-5.197 5.197c-10.408 10.408-27.552 10.55-38.102 0-2.593-2.593-4.542-5.585-5.856-8.778l-0.003-0.007c-2.701-6.563-2.701-13.972 0.003-20.535v-0.003c1.317-3.193 3.262-6.185 5.856-8.778l5.405-5.405c-3.73 0.437-7.489 0.697-11.268 0.697-15.494 0-31.213-3.73-45.809-11.597-42.977-23.152-33.096-126.555-149.434-192.473-7.697-4.358-12.162-12.786-11.427-21.596 0.732-8.813 6.521-16.399 14.832-19.425 76.863-27.996 180.401 17.962 237.786 63.213 31.934 25.163 52.643 60.662 49.578 96.916l5.603-5.603c10.522-10.522 27.58-10.522 38.102 0 10.567 10.567 10.384 27.718 0 38.102l-5.197 5.197c7.399 8.095 427.999 468.219 435.338 476.249 10.685 11.763 10.935 30.038 0.003 41.999z" />
<glyph unicode="&#xe912;" glyph-name="art-1" d="M1012.090 110.353c-2.952 65.172-30.717 125.639-78.179 170.256-1.763 1.659-7.593 6.886-8.654 7.829-28.888 25.711-66.032 38.217-104.602 35.235-1.709-0.132-3.398-0.331-5.090-0.522l-670.469 531.826c-17.308 13.732-42.374 11.556-57.064-4.946-14.68-16.495-13.938-41.639 1.692-57.241l601.393-600.226c-2.63-40.441 12-81.651 43.199-111.36 18.35-17.471 40.994-29.689 65.484-35.33 52.063-11.998 91.597-50.024 103.17-99.24 1.028-4.37 1.909-8.801 2.673-13.248-94.686-41.755-213.533-64.676-336.085-64.676-39.553 0-78.427 2.325-116.113 6.837-81.736 11.835-156.556 38.026-216.714 76.603-82.766 53.072-128.201 123.784-128.201 199.11 0 98.134 61.114 174.753 192.085 240.365 7.045 3.528 10.285 11.818 7.439 19.165v0c-2.919 7.539-11.225 11.506-18.92 9.030-79.67-25.65-146.908-62.005-195.1-105.59-53.895-48.741-82.385-105.211-82.385-163.303 0-84.6 59.184-163.452 166.65-222.031 76.038-41.45 170.114-69.364 272.416-81.561 33.761-4.845 68.551-7.333 103.829-7.333v0.468c4.996-0.073 9.999-0.116 15.016-0.116 124.242 0 244.451 24.487 342.471 64.879 11.764 4.847 31.485 21.673 37.244 28.141 43.466 48.831 65.772 111.682 62.816 176.979zM40.006 150.927c0 64.253 41.722 125.639 114.82 174.81-50.482-50.589-74.722-107.882-74.722-174.474 0-68.736 32.56-133.482 92.883-186.63-85.947 51.848-132.981 117.443-132.981 186.295zM109.215 831.18c4.703 5.282 12.723 5.972 18.26 1.581l591.969-469.558c-20.614-8.767-38.782-22.342-53.425-40.132-10.261-12.473-18.23-26.64-23.634-41.8l-532.629 531.592c-5.001 4.991-5.239 13.038-0.541 18.317zM665.252 258.445c3.807 17.112 11.558 33.108 22.665 46.607 15.176 18.44 35.079 31.222 57.844 37.275l34.907-27.689c-22.356-8.616-42.249-22.887-57.981-42.001-11.58-14.068-19.964-29.826-25.225-46.34l-32.21 32.149zM930.212-45.355c-14.512 59.073-61.901 104.545-124.041 118.864-19.544 4.504-37.629 14.267-52.3 28.235-42.478 40.448-46.557 107.596-9.29 152.872 19.683 23.913 47.479 38.397 78.266 40.784 2.994 0.232 5.977 0.347 8.942 0.347 27.569 0 53.779-9.949 74.606-28.488 1.163-1.037 6.56-5.875 8.087-7.309 42.058-39.538 66.661-93.124 69.277-150.882 2.574-56.792-16.422-111.5-53.547-154.423z" />
<glyph unicode="&#xe913;" glyph-name="blocks" d="M585.697 512.346l17.061-42.652c2.594-6.485 8.822-10.43 15.406-10.43 2.052 0 4.136 0.383 6.155 1.192 8.506 3.402 12.644 13.055 9.243 21.562l-86.752 216.878c-5.728 14.318-19.394 23.567-34.812 23.567s-29.081-9.251-34.807-23.567l-86.752-216.878c-3.402-8.506 0.736-18.16 9.243-21.562 8.495-3.399 18.158 0.734 21.562 9.24l17.061 42.65h147.394zM507.992 686.572c0.719 1.798 2.068 2.711 4.005 2.711 1.94 0 3.289-0.913 4.010-2.714l56.42-141.049h-120.854l56.42 141.051zM335.715 130.765c9.952 12.049 15.939 27.491 15.939 44.304 0 38.414-31.253 69.667-69.667 69.667h-53.080c-28.659-0.002-51.974-23.318-51.974-51.976v-212.32c0-9.161 7.425-16.587 16.587-16.587h106.16c48.17 0 87.361 39.191 87.361 87.361 0 35.327-21.088 65.799-51.326 79.551zM210.108 192.76c0 10.366 8.433 18.799 18.799 18.799h53.080c20.122 0 36.492-16.371 36.492-36.492s-16.371-36.492-36.492-36.492h-71.879v54.186zM299.68-2.972h-89.572v108.371h89.572c29.88 0 54.186-24.308 54.186-54.186s-24.306-54.186-54.186-54.186zM838.683 16.252c-24.127-16.833-53.717-22.889-83.329-17.041-41.597 8.212-74.993 41.703-83.105 83.338-6.292 32.295 1.84 65.063 22.309 89.906 20.478 24.852 50.669 39.107 82.831 39.107 19.034 0 37.718-5.043 54.040-14.584 0.069-0.135 0.157-0.407 0.157-0.748v-21.161c0-9.161 7.425-16.587 16.587-16.587s16.587 7.427 16.587 16.587v21.161c0 12.12-6.27 23.331-16.364 29.258-21.453 12.593-46.007 19.25-71.005 19.25-42.108 0-81.63-18.655-108.433-51.185-26.794-32.518-37.461-75.289-29.267-117.346 10.66-54.723 54.562-98.744 109.243-109.539 9.534-1.882 19.067-2.811 28.504-2.811 28.703 0 56.459 8.608 80.23 25.193 7.513 5.242 9.355 15.581 4.114 23.094-5.246 7.502-15.583 9.346-23.099 4.107zM954.333 368.587h-188.392c6.558 10.62 10.353 23.121 10.353 36.492v389.253c0 38.414-31.253 69.667-69.667 69.667h-389.253c-38.414 0-69.667-31.253-69.667-69.667v-389.253c0-13.372 3.795-25.872 10.353-36.492h-188.392c-38.414 0-69.667-31.253-69.667-69.667v-389.253c0-38.414 31.253-69.667 69.667-69.667h389.253c21.247 0 40.292 9.572 53.080 24.618 12.788-15.046 31.832-24.618 53.080-24.618h389.253c38.414 0 69.667 31.253 69.667 69.667v389.253c0 38.414-31.253 69.667-69.667 69.667zM280.881 405.080v389.253c0 20.122 16.371 36.492 36.492 36.492h389.253c20.122 0 36.492-16.371 36.492-36.492v-389.253c0-20.122-16.371-36.492-36.492-36.492h-389.253c-20.122 0-36.492 16.371-36.492 36.492zM458.92-126.825h-389.253c-20.122 0-36.492 16.371-36.492 36.492v389.253c0 20.122 16.371 36.492 36.492 36.492h389.253c20.122 0 36.492-16.371 36.492-36.492v-389.253c0-20.122-16.371-36.492-36.492-36.492zM990.825-90.333c0-20.122-16.371-36.492-36.492-36.492h-389.253c-20.122 0-36.492 16.371-36.492 36.492v389.253c0 20.122 16.371 36.492 36.492 36.492h389.253c20.122 0 36.492-16.371 36.492-36.492v-389.253z" />
<glyph unicode="&#xe914;" glyph-name="book" d="M868.972 864h-713.944c-11.264 0-20.398-9.132-20.398-20.398v-983.203c0-11.266 9.134-20.398 20.398-20.398h713.944c11.264 0 20.398 9.132 20.398 20.398v983.203c0 11.266-9.134 20.398-20.398 20.398zM208.064-119.203h-32.637v942.406h32.637v-942.406zM848.574-119.203h-599.713v942.406h599.713v-942.406zM365.131 411.155h363.092c11.264 0 20.398 9.132 20.398 20.398v242.741c0 11.266-9.134 20.398-20.398 20.398h-363.092c-11.264 0-20.398-9.132-20.398-20.398v-242.741c0-11.266 9.134-20.398 20.398-20.398zM385.53 653.896h322.295v-201.944h-322.295v201.944zM451.825 572.303h92.813c11.264 0 20.398 9.132 20.398 20.398s-9.134 20.398-20.398 20.398h-92.813c-11.264 0-20.398-9.132-20.398-20.398s9.134-20.398 20.398-20.398zM641.53 533.546h-189.705c-11.264 0-20.398-9.132-20.398-20.398s9.134-20.398 20.398-20.398h189.705c11.264 0 20.398 9.132 20.398 20.398s-9.134 20.398-20.398 20.398zM641.53 613.1h-25.498c-11.264 0-20.398-9.132-20.398-20.398s9.134-20.398 20.398-20.398h25.498c11.264 0 20.398 9.132 20.398 20.398s-9.134 20.398-20.398 20.398zM799.618-90.645c11.264 0 20.398 9.132 20.398 20.398v293.737c0 11.266-9.134 20.398-20.398 20.398s-20.398-9.132-20.398-20.398v-293.737c0-11.266 9.134-20.398 20.398-20.398z" />
<glyph unicode="&#xe915;" glyph-name="buildings" d="M215.274 425.225l125.357 44.289v284.243h-125.357zM558.872 425.225l125.453 44.289v284.243h-125.453zM62.129-160h899.79v306.1h-899.79v-306.1zM493.060 98.941h96.517v-154.437h-96.517v154.437zM322.457 98.941h96.565v-154.437h-96.565v154.437zM145.541 98.941h96.469v-154.437h-96.469v154.437zM749.467 327.321l-24.631 125.023-312.796-125.023-37.449 125.023-312.461-125.023v-133.297h899.743v133.297zM158.598 774.131c15.735 2.965 27.884 11.814 37.497 21.475 9.996 9.805 17.649 19.61 29.079 25.492 10.809 6.074 24.584 7.796 33.48 6.026 8.513-1.483 13.966-5.165 20.279-14.875 5.931-9.279 10.235-21.092 15.496-33.48h2.535c4.496 13.296 4.687 27.453 0.143 41.754-2.391 7.126-6.505 14.444-13.392 20.231-6.744 5.931-16.74 8.753-25.014 7.796-17.218-2.104-27.31-12.961-38.023-20.423-10.57-7.652-21.523-15.975-32.619-20.949-11.431-4.926-22.814-8.322-32.762-8.944-10.092-0.239-17.936 3.013-25.779 8.992-16.214 12.053-29.175 34.293-42.806 56.772l-2.535-0.478c-1.722-26.975 4.783-55.768 28.123-77.625 11.861-10.618 30.706-15.448 46.298-11.766zM546.915 771.931c11.861 2.439 20.279 9.326 26.927 16.931 6.457 7.27 11.766 14.492 19.61 18.27 7.557 4.065 17.649 3.778 22.575 2.009 4.448-1.626 6.552-2.248 11.335-8.322 4.305-5.692 8.035-13.535 13.153-22.001h2.583c4.639 9.374 5.309 19.562 2.439 30.275-1.578 5.309-4.639 10.953-9.9 15.496-5.165 4.735-13.153 6.839-19.514 5.979-13.153-2.057-19.753-10.953-27.119-16.405-7.318-5.739-15.162-10.857-23.34-13.87-8.035-2.487-15.975-4.209-21.905-4.257-6.17 0.335-10.044 2.391-14.827 5.787-10.187 6.935-20.183 21.331-32.045 36.302l-2.535-0.526c-3.587-19.418 0-40.367 17.266-57.107 8.992-8.083 23.627-11.67 35.297-8.561z" />
<glyph unicode="&#xe916;" glyph-name="buildings-1" d="M580.268 327.868v-402.532c0-9.42 7.646-17.066 17.066-17.066s17.066 7.646 17.066 17.066v368.399l5-5c3.328-3.328 7.698-5 12.066-5s8.738 1.672 12.066 5c6.674 6.674 6.674 17.46 0 24.132l-131.533 131.533v61.202c0 9.42-7.646 17.066-17.066 17.066s-17.066-7.646-17.066-17.066v-51.2h-324.263c-4.522 0-8.874-1.792-12.066-5l-102.4-102.382c0-0.016 0-0.016-0.018-0.016l-34.116-34.138c-6.672-6.672-6.672-17.46 0-24.132 6.674-6.672 17.46-6.672 24.132 0l5 5v-368.401c0-9.42 7.646-17.066 17.066-17.066s17.066 7.646 17.066 17.066v402.534l92.4 92.398h327.201l92.4-92.398zM119.47-125.864h-102.4c-9.42 0-17.066-7.646-17.066-17.066s7.646-17.066 17.066-17.066h102.4c9.42 0 17.066 7.646 17.066 17.066s-7.644 17.066-17.066 17.066zM862.277 762.844c-7.92 5.138-18.5 2.884-23.604-5.018-5.138-7.918-2.884-18.484 5.018-23.604 29.714-19.286 53.196-47.992 66.116-80.828 2.646-6.708 9.080-10.82 15.89-10.82 2.082 0 4.198 0.376 6.246 1.194 8.772 3.448 13.090 13.364 9.626 22.136-15.736 39.954-43.144 73.49-79.292 96.94zM467.304 214.187c-1.98 0.82-4.164 1.28-6.452 1.28h-273.167c-2.286 0-4.472-0.46-6.452-1.28-2.032-0.836-3.926-2.082-5.564-3.72s-2.884-3.532-3.72-5.564c-0.82-1.98-1.28-4.164-1.28-6.452v-273.117c0-6.894 4.164-13.124 10.53-15.77 6.366-2.628 13.704-1.178 18.602 3.704l124.468 124.468 124.468-124.468c3.26-3.26 7.628-5 12.066-5 2.202 0 4.42 0.426 6.536 1.298 6.366 2.646 10.53 8.874 10.53 15.77v273.117c0 2.286-0.46 4.472-1.28 6.452-0.836 2.032-2.082 3.926-3.72 5.564-1.638 1.636-3.532 2.882-5.564 3.718zM204.803-33.466v190.667l95.334-95.334-95.334-95.334zM228.935 181.335h190.667l-95.334-95.334-95.334 95.334zM443.736-33.466l-95.334 95.334 95.334 95.334v-190.667zM750.935 863.998c-150.561 0-273.065-122.504-273.065-273.065v-17.066c0-9.42 7.646-17.066 17.066-17.066h290.133v-631.464c0-9.42 7.646-17.066 17.066-17.066s17.066 7.646 17.066 17.066v17.066h102.4v-17.066c0-9.42 7.646-17.066 17.066-17.066s17.066 7.646 17.066 17.066v648.527c0 9.42-7.646 17.066-17.066 17.066h-426.664c0 131.753 107.178 238.933 238.933 238.933s238.933-107.178 238.933-238.933v-665.597c0-9.42 7.646-17.066 17.066-17.066s17.066 7.646 17.066 17.066v665.597c0 150.563-122.504 273.067-273.065 273.067zM819.201 556.799h102.4v-68.266h-102.4v68.266zM819.201 454.4h102.4v-68.266h-102.4v68.266zM819.201 352h102.4v-68.266h-102.4v68.266zM819.201 249.6h102.4v-68.266h-102.4v68.266zM819.201 147.201h102.4v-68.266h-102.4v68.266zM819.201 44.801h102.4v-68.266h-102.4v68.266zM1006.934-125.864h-34.134c-9.42 0-17.066-7.646-17.066-17.066s7.646-17.066 17.066-17.066h34.134c9.42 0 17.066 7.646 17.066 17.066s-7.646 17.066-17.066 17.066zM904.534-125.864h-716.797c-9.42 0-17.066-7.646-17.066-17.066s7.646-17.066 17.066-17.066h716.797c9.42 0 17.066 7.646 17.066 17.066s-7.646 17.066-17.066 17.066z" />
<glyph unicode="&#xe917;" glyph-name="business" d="M910.45 724.451c-0.549 10.685-9.35 19.081-20.058 19.081h-170.048c-41.739 71.892-119.393 120.468-208.343 120.468s-166.604-48.575-208.343-120.468h-170.048c-10.708 0-19.509-8.391-20.058-19.081l-43.253-863.371c-0.277-5.49 1.722-10.852 5.507-14.834 3.785-3.987 9.055-6.247 14.551-6.247h843.29c5.49 0 10.766 2.254 14.551 6.247 3.785 3.981 5.784 9.344 5.507 14.834l-43.253 863.371zM712.779 623.059c0-11.072-8.997-20.081-20.081-20.081-11.078 0-20.081 9.009-20.081 20.081s8.997 20.081 20.081 20.081c11.083 0 20.081-9.009 20.081-20.081zM512 823.844c65.484 0 123.571-31.655 160.242-80.312h-320.484c36.671 48.656 94.758 80.312 160.242 80.312zM331.296 643.14c11.078 0 20.081-9.009 20.081-20.081s-8.997-20.081-20.081-20.081c-11.083 0-20.081 9.009-20.081 20.081s8.997 20.081 20.081 20.081zM111.47-119.844v0.006l41.236 823.215h132.406c-8.94-25.166-14.059-52.123-14.059-80.312 0-33.216 27.021-60.237 60.237-60.237s60.237 27.021 60.237 60.237c0 33.216-27.021 60.231-60.237 60.231-3.825 0-7.541-0.445-11.176-1.133 2.242 7.27 4.958 14.314 7.98 21.208h367.805c3.022-6.894 5.732-13.938 7.975-21.208-3.629 0.682-7.35 1.133-11.176 1.133-33.216 0-60.237-27.021-60.237-60.237s27.021-60.237 60.237-60.237 60.237 27.021 60.237 60.237c0 28.194-5.12 55.146-14.059 80.312h132.406l41.236-823.215h-801.048zM646.625 395.161c-9.529 5.669-21.843 2.543-27.512-6.992l-129.8-218.265-108.766 66.333c-9.431 5.756-21.826 2.797-27.587-6.697-5.784-9.46-2.785-21.826 6.686-27.587l126.096-76.914c3.178-1.93 6.784-2.93 10.454-2.93 1.606 0 3.236 0.196 4.843 0.589 5.195 1.294 9.668 4.617 12.413 9.229l140.173 235.711c5.669 9.529 2.531 21.855-6.998 27.524z" />
<glyph unicode="&#xe918;" glyph-name="check" d="M795.093 828.613h-212.32c-0.197 0-0.389-0.022-0.584-0.029-15.931 21.471-41.46 35.415-70.189 35.415s-54.259-13.945-70.189-35.415c-0.195 0.007-0.387 0.029-0.584 0.029h-212.32c-57.926 0-105.054-47.128-105.054-105.054v-778.505c0-57.926 47.128-105.054 105.054-105.054h566.186c57.926 0 105.054 47.128 105.054 105.054v778.505c0 57.926-47.128 105.054-105.054 105.054zM512 830.825c29.88 0 54.186-24.308 54.186-54.186v-17.693c0-9.161 7.425-16.587 16.587-16.587h70.773c10.366 0 18.799-8.433 18.799-18.799s-8.433-18.799-18.799-18.799h-283.093c-10.366 0-18.799 8.433-18.799 18.799s8.433 18.799 18.799 18.799h70.773c9.163 0 16.587 7.427 16.587 16.587v17.693c0 29.877 24.306 54.186 54.186 54.186zM370.454 671.585h283.093c28.659 0 51.974 23.315 51.974 51.974 0 0.372-0.020 0.736-0.029 1.106h89.601c0.608 0 1.106-0.495 1.106-1.106v-778.505c0-0.61-0.498-1.106-1.106-1.106h-566.186c-0.608 0-1.106 0.495-1.106 1.106v778.505c0 0.61 0.498 1.106 1.106 1.106h89.601c-0.009-0.369-0.029-0.734-0.029-1.106 0-28.659 23.315-51.974 51.974-51.974zM866.972-54.946c0-39.633-32.244-71.879-71.879-71.879h-566.186c-39.635 0-71.879 32.246-71.879 71.879v778.505c0 39.633 32.244 71.879 71.879 71.879h197.791c-1.336-6.060-2.059-12.346-2.059-18.799v-1.106h-54.186c-15.533 0-29.486-6.858-39.016-17.693h-102.53c-18.903 0-34.281-15.378-34.281-34.281v-778.505c0-18.903 15.378-34.281 34.281-34.281h566.186c18.903 0 34.281 15.378 34.281 34.281v778.505c0 18.903-15.378 34.281-34.281 34.281h-102.53c-9.532 10.835-23.486 17.693-39.016 17.693h-54.186v1.106c0 6.454-0.725 12.739-2.059 18.799h197.791c39.635 0 71.879-32.246 71.879-71.879v-778.505zM512 724.665c9.163 0 16.587 7.427 16.587 16.587v35.387c0 9.161-7.425 16.587-16.587 16.587s-16.587-7.427-16.587-16.587v-35.387c0-9.161 7.425-16.587 16.587-16.587zM494.307 476.959h212.32c9.163 0 16.587 7.427 16.587 16.587s-7.425 16.587-16.587 16.587h-212.32c-9.163 0-16.587-7.427-16.587-16.587s7.425-16.587 16.587-16.587zM305.643 505.275c-6.478-6.478-6.478-16.981 0-23.457l35.387-35.387c3.24-3.238 7.486-4.859 11.731-4.859s8.491 1.619 11.731 4.859l70.773 70.773c6.478 6.478 6.478 16.981 0 23.457-6.48 6.478-16.981 6.478-23.459 0l-59.045-59.045-23.656 23.658c-6.48 6.478-16.981 6.478-23.461 0zM494.307 300.026h212.32c9.163 0 16.587 7.427 16.587 16.587s-7.425 16.587-16.587 16.587h-212.32c-9.163 0-16.587-7.427-16.587-16.587s7.425-16.587 16.587-16.587zM411.803 363.728l-59.043-59.045-23.656 23.658c-6.48 6.478-16.981 6.478-23.459 0s-6.478-16.981 0-23.457l35.387-35.387c3.24-3.238 7.486-4.859 11.731-4.859s8.491 1.619 11.731 4.859l70.773 70.773c6.478 6.478 6.478 16.981 0 23.457-6.482 6.478-16.983 6.478-23.464 0zM494.307 123.093h212.32c9.163 0 16.587 7.427 16.587 16.587s-7.425 16.587-16.587 16.587h-212.32c-9.163 0-16.587-7.427-16.587-16.587s7.425-16.587 16.587-16.587zM411.803 186.795l-59.043-59.045-23.656 23.658c-6.48 6.478-16.981 6.478-23.459 0s-6.478-16.981 0-23.457l35.387-35.387c3.24-3.238 7.486-4.859 11.731-4.859s8.491 1.619 11.731 4.859l70.773 70.773c6.478 6.478 6.478 16.981 0 23.457-6.482 6.478-16.983 6.478-23.464 0z" />
<glyph unicode="&#xe919;" glyph-name="chicken" d="M1023.605 273.644c-1.408 13.903-6.575 26.985-14.855 38.001 5.907 12.452 8.347 26.302 6.942 40.207v0c-4.236 41.846-41.721 72.432-83.567 68.211-35.554-3.597-62.975-31.206-67.824-65.091l-94.034-9.513c-17.748 20.045-43.442 32.784-71.914 33.389l-4.836 0.101c-8.157 13.067-17.152 25.67-26.862 37.653l85.011 35.785c8.207-11.029 19.285-19.654 32.346-24.975 9.297-3.787 19.043-5.681 28.79-5.681 10.031 0 20.063 2.006 29.586 6.017 38.763 16.319 57.025 61.129 40.708 99.894-5.422 12.879-14.194 23.873-25.344 31.977 1.997 13.637 0.268 27.596-5.156 40.477-7.902 18.778-22.647 33.354-41.516 41.043-18.869 7.691-39.598 7.57-58.378-0.335-32.935-13.864-51.057-48.3-45.754-82.118l-87.075-36.655c-23.366 14.265-51.981 18.357-78.583 10.824l-21.144-5.998c-46.527 19.657-95.802 29.647-146.596 29.647-53.337 0-104.435-11.176-150.862-31.463l-2.442 92.253c-0.227 8.598-6.397 15.885-14.84 17.53-8.423 1.645-16.893-2.794-20.33-10.681l-5.264-12.078c-8.773-20.086-21.401-37.763-37.53-52.54-16.144-14.786-34.855-25.812-55.619-32.771-18.039-6.046-32.11-19.769-38.607-37.649-6.501-17.886-4.519-37.448 5.441-53.682l18.314-29.805c-34.071-45.406-58.266-99.019-69.113-157.959-1.79-9.746-2.697-19.659-2.697-29.472 0-88.779 72.374-161.006 161.33-161.006h424.418c41.054 0 80.127 15.395 110.029 43.349 26.747 25.009 44.040 57.957 49.444 93.667 15.362 8.779 27.95 21.47 36.634 36.524l94.030 9.513c4.612-12.953 12.674-24.446 23.599-33.361 13.745-11.221 30.58-17.193 48.086-17.193 2.593 0 5.206 0.132 7.82 0.395 20.272 2.051 38.53 11.873 51.415 27.656s18.849 35.641 16.8 55.913zM766.944 606.972c4.942 2.079 10.144 3.12 15.349 3.12 5.055 0 10.113-0.982 14.935-2.947 9.787-3.99 17.437-11.551 21.539-21.293v0c3.856-9.161 4.094-19.402 0.665-28.835-3.275-9.012 0.944-19.028 9.677-22.986 9.142-4.141 16.301-11.469 20.158-20.63 8.464-20.108-1.010-43.357-21.118-51.823-9.742-4.098-20.497-4.163-30.284-0.175-9.787 3.99-17.437 11.551-21.539 21.293-3.856 9.161-4.094 19.402-0.665 28.833 3.278 9.014-0.941 19.033-9.677 22.988-9.142 4.139-16.301 11.465-20.158 20.626-8.464 20.117 1.008 43.364 21.118 51.83zM737.485 486.242l-72.065-30.336c-1.291 6.879-3.297 13.633-6.056 20.201-2.74 6.514-6.203 12.67-10.232 18.413l72.097 30.351c4.545-6.074 9.949-11.463 16.111-15.941-1.105-7.544-1.026-15.183 0.145-22.688zM625.528 461.879c0.419-0.995 0.81-1.999 1.175-3.010-3.88 3.515-7.833 6.952-11.851 10.299-13.4 11.156-27.531 21.356-42.293 30.539 12.206-0.861 24.085-5.288 33.95-12.974 8.321-6.464 14.9-15.062 19.020-24.854zM84.778 454.622c-4.070 6.633-4.88 14.63-2.222 21.941 2.654 7.304 8.405 12.912 15.775 15.382 25.665 8.602 48.796 22.23 68.749 40.509 6.534 5.985 12.603 12.357 18.191 19.091l1.183-44.724c-33.419-19.119-63.726-43.241-89.832-71.467l-11.843 19.268zM585.748 93.887h-424.418c-68.718 0-124.624 55.761-124.624 124.301 0 7.594 0.704 15.274 2.092 22.824 29.731 161.537 170.514 278.784 334.752 278.784 47.891 0 94.293-9.807 137.899-29.144 28.794-12.795 55.682-29.513 79.916-49.69 14.33-11.931 27.732-25.1 39.853-39.16 6.089-7.045 11.879-14.367 17.379-21.9l-144.557 3.072c-35.081 0.777-68.917-13.626-92.741-39.428-23.826-25.801-35.464-60.639-31.927-95.58s21.913-66.743 50.424-87.248c21.047-15.14 46.171-23.083 71.661-23.083 9.040 0 18.13 1 27.097 3.034l175.871 39.866c-16.234-50.284-63.927-86.648-118.676-86.648zM709.99 219.431l-189.551-42.967c-23.999-5.437-49.23-0.32-69.213 14.052s-32.862 36.66-35.338 61.146c-2.477 24.487 5.676 48.9 22.373 66.982 16.284 17.636 39.218 27.652 63.172 27.652 0.607 0 1.216-0.006 1.824-0.019l194.317-4.13c31.337-0.665 57.346-24.683 60.501-55.867s-17.517-59.92-48.084-66.849zM794.593 289.978c-0.721 7.134-2.217 14.021-4.361 20.604l77.808 7.872c2.565-7.14 6.151-13.875 10.729-19.961-3.269-6.89-5.435-14.216-6.516-21.734l-77.808-7.872c0.784 6.892 0.87 13.948 0.149 21.090zM978.371 240.942c-6.685-8.187-16.155-13.283-26.674-14.347-10.508-1.069-20.816 2.030-29.006 8.714-8.187 6.682-13.283 16.155-14.347 26.674-1.002 9.889 1.775 19.747 7.82 27.762 5.776 7.656 4.681 18.471-2.511 24.815-7.527 6.639-12.223 15.742-13.222 25.631-2.198 21.71 13.678 41.157 35.386 43.353 1.349 0.136 2.686 0.203 4.014 0.203 20.039 0 37.279-15.23 39.339-35.591 1-9.891-1.777-19.749-7.82-27.76-5.776-7.656-4.681-18.469 2.509-24.815 7.527-6.639 12.223-15.744 13.225-25.635 1.067-10.515-2.030-20.814-8.712-29.003zM322.83 315.11l-13.177-0.788c-43.819-2.628-86.941 13.516-118.277 44.279-13.583 13.335-32.234 19.65-51.093 17.31-18.89-2.334-35.416-12.983-45.348-29.219l-37.612-61.503c-5.286-8.647-2.565-19.944 6.082-25.231 8.647-5.292 19.942-2.565 25.234 6.082l37.612 61.503c4.057 6.635 10.811 10.988 18.532 11.942 7.712 0.952 15.334-1.626 20.881-7.073 25.776-25.303 57.988-42.599 92.626-50.385l-47.835-25.983c-3.69-2.008-8.341-1.326-11.301 1.656-11.59 11.668-28.045 16.256-43.994 12.27-15.958-3.986-28.317-15.766-33.063-31.512l-8.462-28.077c-2.923-9.705 2.572-19.944 12.279-22.867 1.764-0.531 3.55-0.786 5.301-0.786 7.885 0 15.172 5.124 17.567 13.063l8.462 28.077c1.408 4.677 5.234 6.097 6.81 6.492 1.58 0.395 5.622 0.937 9.064-2.528 14.375-14.47 36.936-17.774 54.861-8.038l104.709 56.878c7.557 4.104 11.249 12.907 8.883 21.175-2.364 8.261-10.109 13.773-18.739 13.266z" />
<glyph unicode="&#xe91a;" glyph-name="clock" d="M512 864c-282.317 0-512-229.683-512-512s229.683-512 512-512 512 229.683 512 512-229.683 512-512 512zM512-125.867c-263.492 0-477.867 214.374-477.867 477.867s214.374 477.867 477.867 477.867 477.867-214.374 477.867-477.867-214.374-477.867-477.867-477.867zM529.067 419.908v173.090c0 9.438-7.646 17.067-17.067 17.067s-17.067-7.629-17.067-17.067v-173.090c-23.876-6.212-42.564-24.9-48.777-48.777h-121.89c-9.421 0-17.067-7.629-17.067-17.067s7.646-17.067 17.067-17.067h121.89c7.629-29.355 34.133-51.2 65.843-51.2 37.649 0 68.267 30.618 68.267 68.267 0 31.727-21.845 58.214-51.2 65.843zM512 319.932c-18.825 0-34.133 15.309-34.133 34.133s15.309 34.133 34.133 34.133 34.133-15.309 34.133-34.133-15.309-34.133-34.133-34.133zM512 695.398c9.421 0 17.067 7.629 17.067 17.067v17.067c0 9.438-7.646 17.067-17.067 17.067s-17.067-7.629-17.067-17.067v-17.067c0-9.438 7.646-17.067 17.067-17.067zM512 12.732c-9.421 0-17.067-7.629-17.067-17.067v-17.067c0-9.438 7.646-17.067 17.067-17.067s17.067 7.629 17.067 17.067v17.067c0 9.438-7.646 17.067-17.067 17.067zM887.467 371.132h-17.067c-9.421 0-17.067-7.629-17.067-17.067s7.646-17.067 17.067-17.067h17.067c9.421 0 17.067 7.629 17.067 17.067s-7.646 17.067-17.067 17.067zM153.6 371.132h-17.067c-9.421 0-17.067-7.629-17.067-17.067s7.646-17.067 17.067-17.067h17.067c9.421 0 17.067 7.629 17.067 17.067s-7.646 17.067-17.067 17.067zM765.423 631.637l-12.066-12.066c-6.673-6.673-6.673-17.459 0-24.132 3.328-3.328 7.697-5.001 12.066-5.001s8.738 1.673 12.066 5.001l12.066 12.066c6.673 6.673 6.673 17.459 0 24.132s-17.459 6.656-24.132 0zM246.511 112.708l-12.066-12.066c-6.673-6.673-6.673-17.459 0-24.132 3.328-3.328 7.697-5.001 12.066-5.001s8.738 1.673 12.066 5.001l12.066 12.066c6.673 6.673 6.673 17.459 0 24.132s-17.476 6.656-24.132 0zM777.489 112.708c-6.673 6.673-17.459 6.673-24.132 0s-6.673-17.459 0-24.132l12.066-12.066c3.328-3.328 7.697-5.001 12.066-5.001s8.738 1.673 12.066 5.001c6.673 6.673 6.673 17.459 0 24.132l-12.066 12.066zM258.577 631.637c-6.673 6.673-17.459 6.673-24.132 0s-6.673-17.459 0-24.132l12.066-12.066c3.328-3.328 7.697-5.001 12.066-5.001s8.738 1.673 12.066 5.001c6.673 6.673 6.673 17.459 0 24.132l-12.066 12.066z" />
<glyph unicode="&#xe91b;" glyph-name="coin-icon" d="M512.059-160v24.601l-0.038-24.601c-282.304 0-512 229.686-512.020 512 0 282.314 229.686 512 512 512 282.321 0 512-229.686 512-512 0.010-282.314-229.648-512-511.941-512zM512 814.797c-255.183 0-462.797-207.615-462.797-462.797 0.020-255.184 207.645-462.797 462.817-462.797h0.038c255.164 0 462.739 207.613 462.739 462.797 0.010 255.183-207.603 462.797-462.797 462.797zM512.020 58.675c-93.023 0-168.716 71.314-168.716 158.962 0 13.59 11.011 24.601 24.601 24.601s24.601-11.011 24.601-24.601c0-60.519 53.612-109.763 119.513-109.763s119.493 49.245 119.493 109.763c0 60.52-53.602 109.761-119.493 109.761-93.023 0-168.716 71.314-168.716 158.962 0 87.65 75.693 158.962 168.716 158.962 49.952 0 97.027-20.666 129.166-56.7 9.042-10.145 8.147-25.692-1.988-34.736-10.136-9.054-25.691-8.149-34.736 1.988-22.801 25.575-56.495 40.248-92.442 40.248-65.891 0-119.513-49.231-119.513-109.761 0-60.519 53.612-109.76 119.513-109.76 93.024 0 168.696-71.314 168.696-158.964 0.010-87.648-75.673-158.962-168.696-158.962zM507.512-14.833c-13.59 0-24.601 11.011-24.601 24.601v684.464c0 13.59 11.011 24.601 24.601 24.601 13.592 0 24.601-11.011 24.601-24.601v-684.464c0.002-13.59-11.010-24.601-24.601-24.601z" />
<glyph unicode="&#xe91c;" glyph-name="cream" d="M401.237-160c-13.402 0-24.302 14.409-24.367 27.843l-0.569 121.151c-0.032 6.465 2.502 13.58 7.050 18.161 4.532 4.597 10.721 8.886 17.203 8.918l220.502 2.729c0.032 0 0.081 0 0.114 0 13.402 0 24.302-12.086 24.367-25.52l0.569-120.014c0.032-6.449-2.502-12.996-7.066-17.576-4.532-4.581-10.721-10.9-17.187-10.932l-220.502-4.76c-0.032 0-0.097 0-0.114 0zM425.117-33.375l0.357-70.615 171.769 0.796-0.341 70.631-171.785-0.812zM622.795-29.963h-221.574c-12.427 0-22.84 9.341-24.22 21.703l-93.747 845.198c-0.763 6.888 1.446 13.775 6.075 18.925 4.597 5.182 11.192 8.138 18.129 8.138h409.083c6.936 0 13.532-2.956 18.145-8.138 4.63-5.149 6.839-12.037 6.075-18.925l-93.73-845.198c-1.397-12.362-11.81-21.703-24.237-21.703zM423.021 18.802h177.974l88.321 796.432h-354.616l88.321-796.432zM671.805 701.458h-341.133c-13.45 0-24.367 10.916-24.367 24.383 0 13.45 10.916 24.383 24.367 24.383h341.133c13.45 0 24.367-10.932 24.367-24.383 0-13.467-10.9-24.383-24.367-24.383zM508.191 709.58c-13.45 0-24.367 10.916-24.367 24.383v97.532c0 13.45 10.916 24.367 24.367 24.367s24.367-10.916 24.367-24.367v-97.532c0-13.467-10.932-24.383-24.367-24.383zM410.724 709.58c-13.45 0-24.367 10.916-24.367 24.383v97.532c0 13.45 10.916 24.367 24.367 24.367s24.367-10.916 24.367-24.367v-97.532c0-13.467-10.932-24.383-24.367-24.383zM621.902 709.58c-13.45 0-24.367 10.916-24.367 24.383v97.532c0 13.45 10.916 24.367 24.367 24.367s24.367-10.916 24.367-24.367v-97.532c0-13.467-10.932-24.383-24.367-24.383zM508.191 319.487c-13.45 0-24.367 10.932-24.367 24.383v146.281c0 13.467 10.916 24.383 24.367 24.383s24.367-10.916 24.367-24.383v-146.281c0-13.45-10.932-24.383-24.367-24.383zM574.338 392.635h-129.955c-13.45 0-24.367 10.916-24.367 24.383 0 13.45 10.916 24.383 24.367 24.383h129.955c13.45 0 24.367-10.932 24.367-24.383 0-13.467-10.9-24.383-24.367-24.383z" />
<glyph unicode="&#xe91d;" glyph-name="cup" d="M883.559 704.76h-107.266v58.021c20.546 6.94 35.387 26.385 35.387 49.245 0 28.659-23.315 51.974-51.974 51.974h-495.413c-28.659 0-51.974-23.315-51.974-51.974 0-22.86 14.84-42.305 35.387-49.245v-58.021h-107.266c-18.903 0-34.281-15.378-34.281-34.281v-70.773c0-106.708 86.812-193.521 193.521-193.521 0.221 0 0.436 0.024 0.655 0.033 37.671-50.306 92.835-86.781 156.382-100.359-9.010-11.742-14.385-26.416-14.385-42.327 0-23.165 11.375-43.711 28.82-56.386-6.96-8.842-11.127-19.98-11.127-32.080v-141.546c0-29.88-24.306-54.186-54.186-54.186h-70.773c-18.903 0-34.281-15.378-34.281-34.281v-70.773c0-18.903 15.378-34.281 34.281-34.281h353.866c18.903 0 34.281 15.378 34.281 34.281v70.773c0 18.903-15.378 34.281-34.281 34.281h-70.773c-29.88 0-54.186 24.306-54.186 54.186v141.546c0 12.1-4.169 23.238-11.127 32.080 17.446 12.675 28.82 33.221 28.82 56.386 0 15.911-5.374 30.585-14.385 42.327 63.548 13.577 118.711 50.052 156.382 100.359 0.219-0.009 0.433-0.033 0.655-0.033 106.708 0 193.521 86.812 193.521 193.521v70.773c0 18.903-15.378 34.281-34.281 34.281zM264.294 830.825h495.413c10.366 0 18.799-8.433 18.799-18.799s-8.433-18.799-18.799-18.799h-495.413c-10.366 0-18.799 8.433-18.799 18.799s8.433 18.799 18.799 18.799zM139.335 599.706v70.773c0 0.608 0.498 1.106 1.106 1.106h107.266v-107.266c0-44.587 11.114-86.622 30.693-123.504-78.386 10.446-139.065 77.694-139.065 158.89zM688.933-53.84c0.608 0 1.106-0.498 1.106-1.106v-70.773c0-0.608-0.498-1.106-1.106-1.106h-353.866c-0.608 0-1.106 0.498-1.106 1.106v70.773c0 0.608 0.498 1.106 1.106 1.106h353.866zM530.799 175.067v-141.546c0-20.458 7.088-39.281 18.912-54.186h-75.42c11.824 14.904 18.912 33.728 18.912 54.186v141.546c0 10.366 8.433 18.799 18.799 18.799s18.797-8.433 18.797-18.799zM548.492 263.533c0-20.122-16.371-36.492-36.492-36.492s-36.492 16.371-36.492 36.492 16.371 36.492 36.492 36.492 36.492-16.371 36.492-36.492zM512 333.201c-127.438 0-231.119 103.681-231.119 231.119v195.732h462.238v-195.732c0-127.438-103.681-231.119-231.119-231.119zM884.665 599.706c0-81.197-60.679-148.445-139.065-158.89 19.58 36.882 30.693 78.917 30.693 123.504v107.266h107.266c0.608 0 1.106-0.498 1.106-1.106v-70.773z" />
<glyph unicode="&#xe91e;" glyph-name="emoticon" d="M894.859 407.024c-3.041 23.354-14.997 44.125-33.66 58.489s-41.808 20.594-65.158 17.556c-23.354-3.041-44.125-14.997-58.506-33.683l-39.354-51.272v322.063c0 48.618-39.551 88.17-88.17 88.17-16.549 0-32.043-4.59-45.287-12.553-9.077 39.028-44.116 68.205-85.862 68.205-41.75 0-76.788-29.177-85.862-68.202-13.247 7.963-28.738 12.553-45.287 12.553-48.618 0-88.17-39.551-88.17-88.17v-54.322c-12.728 7.137-27.382 11.227-42.979 11.227-48.618 0-88.17-39.551-88.17-88.17v-383.877c0-86.327 38.602-163.799 99.442-216.088 0-0.045-0.006-0.090-0.006-0.136v-126.22c0-12.479 10.116-22.595 22.595-22.595h332.473c12.479 0 22.595 10.116 22.595 22.595v126.22c0 1.843-0.245 3.625-0.662 5.339 9.232 8.393 17.976 17.424 26.143 27.088 0.226 0.268 0.445 0.542 0.662 0.82l245.668 319.807c14.361 18.66 20.597 41.801 17.556 65.155zM560.301-114.81h-287.282v71.953c41.433-23.538 89.306-37.001 140.268-37.001 52.492 0 103.147 14.374 147.014 40.82v-75.772zM841.476 369.41l-245.355-319.397c-45.684-53.825-112.295-84.684-182.837-84.684-132.172 0-239.703 107.531-239.703 239.703v383.88c0 23.699 19.28 42.979 42.979 42.979s42.979-19.28 42.979-42.979v-196.84c0-12.479 10.116-22.595 22.595-22.595s22.595 10.116 22.595 22.595v328.105c0 23.699 19.28 42.979 42.979 42.979s42.979-19.28 42.979-42.979v-328.109c0-12.479 10.116-22.595 22.595-22.595s22.595 10.116 22.595 22.595v383.761c0 23.699 19.28 42.979 42.979 42.979s42.979-19.28 42.979-42.979v-383.758c0-12.479 10.116-22.595 22.595-22.595s22.595 10.116 22.595 22.595v328.105c0 23.699 19.28 42.979 42.979 42.979s42.979-19.28 42.979-42.979v-388.606c0-9.68 6.165-18.283 15.332-21.394 9.158-3.108 19.293-0.042 25.187 7.637l79.858 104.035c7.001 9.096 17.127 14.926 28.512 16.407 11.382 1.491 22.663-1.556 31.762-8.557 9.096-7.001 14.926-17.127 16.407-28.512s-1.556-22.663-8.57-31.779z" />
<glyph unicode="&#xe91f;" glyph-name="food" d="M1009.278 347.47h-95.191l63.385 97.708c4.426 6.822 2.482 15.938-4.34 20.364-6.82 4.423-15.936 2.485-20.361-4.34l-73.781-113.732h-158.824c-6.247 144.296-103.773 259.337-222.768 259.337-105.764 0-196.258-91.323-218.087-216.062-63.832 45.198-109.218 100.867-119.113 148.106-2.34 11.204-11.173 19.666-22.504 21.557-11.15 1.864-22.049-3.094-27.933-12.636-0.263-0.408-0.476-0.779-0.65-1.103-20.334-34.612-26.246-76.442-17.691-119.559-10.613 11.041-19.066 22.422-24.905 33.887-5.202 10.187-15.954 16.029-27.378 14.885-11.374-1.137-20.71-8.953-23.781-19.933l-0.106-0.385c-17.372-62.998 6.704-131.135 61.324-184.521-11.884 5.606-22.302 12.072-30.889 19.369-8.817 7.497-21.093 8.813-31.276 3.354-9.963-5.341-15.544-16.042-14.214-27.26l0.077-0.625c6.743-53.979 41.099-100.928 96.74-132.197 42.655-23.969 94.007-36.492 147.95-36.49 14.59 0 29.38 0.917 44.224 2.77 35.885 4.482 68.518 12.6 97.289 23.772 32.501-17.376 70.678-26.531 110.923-26.531 59.145 0 112.411 19.542 151.707 55.318 38.381-35.305 90.46-55.325 151.805-55.325 133.439 0 223.092 94.659 223.092 235.549-0.002 8.131-6.593 14.722-14.724 14.722zM455.541 561.895c0-1.080-4.53-5.662-13.589-5.662-7.945 0-12.403 3.522-13.381 5.116 4.729 2.281 9.547 4.326 14.439 6.14 8.323-0.349 12.532-4.557 12.532-5.594zM132.447 528.132c15.453-62.744 78.399-133.058 165.684-184.643 13.145-7.771 26.588-14.914 40.134-21.387-25.91 2.478-52.872 7.404-79.681 14.797-47.869 13.2-91.386 32.92-125.638 55.957-21.324 48.972-21.494 96.693-0.498 135.278zM42.523 443.413c31.294-56.527 110.454-107.936 208.232-134.899 57.655-15.897 114.959-21.168 163.75-15.852-39.28-21.014-89.642-36.343-144.002-43.13-40.743-5.089-80.467-4.917-115.888-0.095-84.073 47.409-128.56 124.576-112.092 193.977zM285.535 129.182c-13.682-1.708-27.183-2.534-40.435-2.534-110.178 0.005-201.857 57.118-214.979 138.451 39.622-31.491 105.166-48.836 180.068-48.833 20.717 0 42.168 1.327 63.965 4.050 87.108 10.878 165.525 42.972 209.763 85.849 1.887 1.828 3.248 4.127 3.945 6.659l18.694 67.8c0.283 1.021 0.947 1.581 1.456 1.869s1.329 0.571 2.351 0.292c1.024-0.283 1.581-0.947 1.871-1.456 0.288-0.51 0.573-1.329 0.29-2.353l-18.692-67.797c-0.503-1.823-0.65-3.726-0.433-5.603 10.249-88.698-73.287-159.585-207.865-176.39zM421.782 140.008c69.741 37.88 107.9 97.187 101.177 166.030l17.952 65.104c2.312 8.38 1.221 17.157-3.069 24.717s-11.27 12.994-19.65 15.304c-8.376 2.31-17.152 1.219-24.715-3.071-7.558-4.292-12.994-11.27-15.304-19.648l-15.166-55.001c-13.209-4.858-28.196-8.376-44.487-10.552-34.666 9.791-71.038 25.63-105.41 45.943-2.267 1.341-4.514 2.7-6.747 4.070 9.85 75.21 46.686 138.088 96.881 173.491 6.906-11.696 21.446-19.607 38.707-19.607 24.13 0 43.033 15.419 43.033 35.106 0 5.245-1.375 10.169-3.8 14.597 5.352 0.566 10.758 0.872 16.212 0.872 102.867 0 187.241-101.841 193.286-229.894h-98.147c-8.131 0-14.722-6.591-14.722-14.722 0-63.933 18.463-118.345 51.101-158.715-33.835-30.621-79.978-47.384-131.52-47.384-26.814 0-52.469 4.584-75.611 13.358zM937.893 179.091c-34.189-33.822-82.839-52.448-136.985-52.448-54.149 0-102.799 18.627-136.985 52.448-34.182 33.815-53.504 81.627-56.305 138.935h386.586c-2.806-57.306-22.128-105.118-56.31-138.935zM530.067 558.090c-24.13 0-43.033-15.419-43.033-35.106s18.903-35.106 43.033-35.106 43.033 15.419 43.033 35.106-18.903 35.106-43.033 35.106zM530.067 517.322c-9.060 0-13.589 4.582-13.589 5.662s4.53 5.662 13.589 5.662 13.589-4.582 13.589-5.662-4.53-5.662-13.589-5.662z" />
<glyph unicode="&#xe920;" glyph-name="food-1" d="M953.481 715.003c23.64 35.403 18.371 71.469 3.038 96.139-26.649 42.834-82.763 61.022-130.472 42.383-64.18-25.122-73.1-94.319-68.105-137.343l-86.561-61.754c-6.579 2.1-15.665 2.632-26.769-2.924-37.342-18.685-81.916-44.923-93.661-51.92-39.613-9.251-378.256-90.938-463.021-196.883-79.278-99.108-48.664-236.765-38.155-274.479-16.597-28.12-65.233-119.115-44.877-188.645 8.793-30.036 28.675-52.292 59.083-66.103 43.927-19.961 111.952-30.282 183.919-30.282 128.526 0 269.628 32.925 308.377 102.684 23.8 42.834 40.649 119.55 58.465 200.779 22.215 101.173 47.377 215.849 84.782 247.933 26.855 22.999 38.607 47.44 34.928 72.625-1.385 9.434-4.989 17.804-9.623 25.316 24.59 16.631 81.441 45.638 120.603 26.026 57.515-28.778 102.953-33.257 135.071-13.462 28.858 17.833 43.498 53.63 43.498 106.357 0 76.16-39.848 97.38-70.519 103.553zM672.021 426.673c-48.161-41.267-72.648-152.824-98.576-270.949-16.391-74.69-33.337-151.897-54.128-189.325-45.232-81.378-325.741-105.39-437.836-54.437-18.949 8.628-30.74 21.535-36.003 39.47-15.155 51.628 26.346 133.029 44.385 161.354l62.321 72.71c7.621 8.856 6.585 22.192-2.294 29.79-8.834 7.598-22.215 6.608-29.79-2.294l-36.484-42.566c-9.114 50.472-15.133 140.301 37.331 205.86 65.542 81.956 341.778 159.781 442.688 182.86 2.168 0.492 4.251 1.322 6.173 2.477 0.475 0.292 45.295 27.124 84.948 47.583 1.322-17.753-2.889-54.065-10.733-88.129-2.248-9.806 2.786-19.881 11.952-24.029 8.731-3.965 34.224-19.057 36.644-36.003 1.762-12.306-10.235-25.476-20.596-34.373zM958.269 541.056c-18.205-11.248-51.588-5.864-93.93 15.316-72.499 36.192-161.623-27.45-169.444-33.229-2.151 1.505-4.251 2.901-6.236 4.142 8.324 40.266 10.567 71.069 6.911 92.471l97.609 69.604c6.831 4.874 10.115 13.399 8.404 21.615-0.704 3.301-16.288 81.189 39.865 103.159 31.999 12.512 65.319-3.078 79.17-25.328 13.17-21.18 7.289-44.837-16.557-66.617-4.131-3.759-16.7-15.236-10.962-30.677 5.715-15.361 21.535-15.813 31.999-16.099 25.23-0.704 56.628-1.59 56.628-63.957-0.006-25.499-4.073-58.425-23.457-70.399zM516.365 329.544c-1.917 11.517-12.798 19.401-24.321 17.381-11.517-1.917-19.303-12.821-17.381-24.321l10.567-63.419c1.716-10.344 10.676-17.673 20.831-17.673 1.156 0 2.311 0.080 3.49 0.292 11.517 1.917 19.303 12.821 17.381 24.321l-10.567 63.419zM558.645 392.964c-1.899 11.517-12.758 19.423-24.321 17.381-11.517-1.917-19.303-12.821-17.381-24.321l10.567-63.419c1.716-10.344 10.676-17.673 20.831-17.673 1.156 0 2.311 0.080 3.49 0.292 11.517 1.917 19.303 12.821 17.381 24.321l-10.567 63.419z" />
<glyph unicode="&#xe921;" glyph-name="food-2" d="M1002.154 395.526c35.293 45.235 20.006 87.643 7.947 102.443-26.374 39.666-62.778 64.114-108.204 72.668-3.592 0.677-7.253 0.902-10.879 1.353 4.685 3.939 9.179 7.895 13.413 11.886 30.487 28.856 45.114 59.689 43.466 91.651-2.533 48.914-43.101 80.615-44.836 81.951l-0.816 0.59c-71.471 48.532-151.704-10.203-155.088-12.736l-3.054-2.915c-1.249-1.527-2.447-3.314-3.679-4.893-7.843 40.238-29.584 72.234-64.721 95.069-8.242 6.594-60.834 45.461-122.207 14.28-7.6-3.869-14.471-8.867-20.961-14.35-17.976 5.084-37.965 6.611-57.781-0.399-26.93-9.543-44.559-32.465-47.161-61.338-2.776-30.695 12.701-60.418 39.405-75.739 24.448-14.020 53.738-39.978 80.945-87.573-16.189 1.11-31.84-0.607-46.624-5.934-88.163-31.667-436.859-542.53-498.717-708.428-5.205-13.985-2.499-28.613 7.097-38.225 6.368-6.368 14.957-9.717 24.119-9.717 4.633 0 9.405 0.85 14.107 2.603 167.078 62.292 680.023 409.253 711.169 495.993 4.251 11.851 6.264 24.275 6.42 37.063 47.578-23.303 72.738-45.982 85.855-63.992 19.121-26.235 49.955-42.442 80.702-42.442 0.33 0 0.659 0 0.989 0 25.628 0.295 48.376 12.059 62.431 32.274 20.891 30.088 13.482 62.57 2.342 83.808 1.475 1.7 3.002 3.349 4.321 5.049zM982.027 477.634c1.978-2.585 18.202-25.732-5.205-58.076-0.729 0.868-1.492 1.648-2.238 2.499-1.267 1.458-2.533 2.863-3.817 4.286-3.279 3.661-6.576 7.184-9.925 10.567-1.024 1.041-2.047 2.082-3.071 3.089-54.31 53.2-116.22 69.944-172.405 69.944-19.92 0-39.128-2.1-57.017-5.379 1.926 0.868 3.921 1.735 5.882 2.585 2.724 1.197 5.448 2.395 8.242 3.574 3.002 1.267 6.038 2.499 9.127 3.713 2.568 1.024 5.205 2.013 7.826 3.002 4.824 1.805 9.717 3.557 14.697 5.223 3.106 1.041 6.212 2.082 9.352 3.037 3.037 0.937 6.125 1.822 9.196 2.689 3.418 0.954 6.854 1.839 10.307 2.689 3.384 0.833 6.784 1.648 10.203 2.377 4.789 1.024 9.595 1.926 14.419 2.689 2.603 0.416 5.205 0.763 7.808 1.093 20.371 2.637 40.759 2.898 60.14-0.729 36.369-6.854 64.391-25.75 86.48-58.874zM769.523 718.646c10.099 6.889 66.092 42.182 112.715 11.053 3.106-2.551 29.428-25.16 31.007-55.976 1.093-21.342-9.89-43.101-32.673-64.669-13.343-12.632-29.584-25.125-48.289-37.15-2.308-0.295-4.598-0.763-6.906-1.11-4.858-0.729-9.7-1.458-14.506-2.395-3.331-0.659-6.594-1.44-9.89-2.186-3.8-0.868-7.583-1.718-11.331-2.707-3.488-0.902-6.923-1.874-10.359-2.88-3.453-1.006-6.871-2.030-10.272-3.106-3.522-1.128-7.010-2.256-10.463-3.453-3.106-1.076-6.142-2.186-9.179-3.314-3.574-1.319-7.149-2.62-10.636-4.008-2.36-0.937-4.633-1.909-6.958-2.863-15.078-6.229-29.116-12.771-41.696-19.191-0.174-0.087-0.382-0.191-0.555-0.278 10.636 19.711 21.811 43.084 31.319 68.296 0.59 1.579 1.232 3.106 1.805 4.702 1.631 4.494 3.123 9.075 4.633 13.673 0.816 2.499 1.683 4.98 2.447 7.513 1.336 4.355 2.499 8.745 3.679 13.17 0.746 2.811 1.51 5.605 2.186 8.433 1.041 4.355 1.943 8.728 2.811 13.118 0.573 2.915 1.128 5.813 1.614 8.745 0.729 4.355 1.319 8.71 1.822 13.066 0.174 1.527 0.486 3.037 0.642 4.563 8.936 14.697 17.82 27.502 27.034 38.954zM569.876 816.249c44.229 22.019 82.767-9.578 84.328-10.879 0.607-0.521 1.232-0.989 1.891-1.423 27.919-17.924 44.42-42.025 50.424-73.657 2.568-13.499 2.95-27.658 1.891-42.060l-0.121-1.562c-2.256-27.329-10.047-55.49-19.937-81.674 0.711 16.64-0.087 33.783-2.898 51.031-0.087 0.538-0.208 1.058-0.295 1.579-0.642 3.731-1.353 7.461-2.186 11.209-0.503 2.29-1.093 4.581-1.683 6.854-0.486 1.874-0.972 3.765-1.527 5.639-0.885 3.106-1.839 6.194-2.88 9.283-0.278 0.833-0.59 1.683-0.885 2.516-8.502 24.275-21.967 48.046-41.973 70.256-0.555 0.607-1.11 1.232-1.666 1.839-2.863 3.106-5.795 6.177-8.919 9.196-1.51 1.475-3.123 2.932-4.702 4.39-2.412 2.221-4.772 4.459-7.34 6.628-4.668 4.008-9.543 7.964-14.731 11.834-0.035 0.035-0.156 0.139-0.208 0.174-1.388 1.215-4.442 3.731-8.797 6.993-0.035 0.017-0.052 0.052-0.087 0.069-4.442 3.314-10.22 7.288-17.091 11.365-0.226 0.156-0.399 0.278-0.607 0.399zM484.281 725.153c-14.992 8.589-23.667 25.281-22.123 42.511 0.659 7.201 4.321 24.709 24.188 31.736 5.605 1.995 11.383 2.846 17.161 2.846 9.196 0 18.393-2.221 27.051-5.431 0 0 0.035-0.017 0.052-0.017 0.226-0.087 0.434-0.191 0.659-0.278 2.984-1.128 5.917-2.342 8.728-3.679 1.388-0.659 2.689-1.353 4.043-2.030 2.256-1.163 4.494-2.342 6.576-3.54 0.816-0.468 1.631-0.937 2.412-1.405 9.3-5.605 16.467-11.157 19.989-14.020 0.677-0.573 1.093-0.937 1.18-0.989 0.399-0.364 0.816-0.694 1.249-1.024 7.565-5.605 14.523-11.521 20.995-17.664 1.839-1.753 3.349-3.574 5.084-5.344 4.425-4.511 8.728-9.092 12.597-13.864 1.7-2.1 3.158-4.234 4.72-6.351 3.54-4.789 6.906-9.682 9.908-14.731 1.18-1.978 2.308-3.973 3.384-5.969 3.262-6.021 6.229-12.198 8.745-18.566 0.399-0.989 0.85-1.978 1.232-2.967 12.198-32.551 14.974-69.493 8.103-110.668-4.772-28.526-13.517-54.432-21.811-74.455-2.932 10.55-6.038 20.509-9.196 30.174-0.521 1.614-1.076 3.158-1.614 4.754-2.95 8.797-6.004 17.247-9.11 25.333-0.538 1.371-1.041 2.759-1.579 4.13-37.34 94.479-84.901 139.888-122.623 161.508zM726.439 355.514c-9.352-26.010-74.559-82.715-162.497-148.442-1.475 0.607-2.932 1.284-4.616 1.475-28.335 3.106-65.033 17.751-83.148 43.466-5.518 7.843-16.38 9.7-24.188 4.182-7.843-5.518-9.717-16.345-4.182-24.188 19.243-27.277 50.597-43.83 79.158-52.124-55.178-39.995-116.637-82.055-177.801-121.877-2.585 2.273-5.657 4.026-9.335 4.442-17.785 1.943-40.759 11.018-51.95 26.878-5.518 7.826-16.328 9.717-24.188 4.164-7.826-5.518-9.7-16.345-4.164-24.188 12.736-18.063 32.76-29.428 51.742-35.727-112.334-71.558-218.49-132.045-275.455-153.283-0.382-0.139-0.729-0.243-0.989-0.347 0.069 0.295 0.174 0.642 0.312 1.024 14.003 37.549 40.013 88.146 72.859 144.816 0.625-0.625 1.024-1.388 1.753-1.926 12.458-9.144 25.698-17.091 39.336-23.598 2.412-1.145 4.963-1.7 7.479-1.7 6.472 0 12.684 3.644 15.668 9.873 4.13 8.658 0.468 19.017-8.173 23.13-11.695 5.587-23.060 12.406-33.783 20.267-1.683 1.232-3.557 1.978-5.448 2.516 40.62 67.897 89.395 142.491 138.777 213.458 6.611-17.195 17.525-34.582 33.766-46.051 3.037-2.152 6.524-3.175 9.994-3.175 5.448 0 10.81 2.551 14.194 7.34 5.518 7.826 3.661 18.653-4.164 24.188-15.877 11.209-24.934 34.165-26.878 51.968-0.104 0.989-0.607 1.805-0.868 2.742 38.416 53.981 76.26 104.474 110.026 146.672 8.277-28.595 24.847-60.054 52.176-79.331 3.037-2.152 6.524-3.175 9.994-3.175 5.448 0 10.827 2.551 14.194 7.34 5.518 7.843 3.661 18.653-4.164 24.188-25.715 18.15-40.36 54.848-43.466 83.148-0.087 0.746-0.486 1.353-0.659 2.065 39.058 46.467 70.013 77.613 85.369 83.131 8.502 3.054 17.317 4.581 26.53 4.581 8.71 0 17.803-1.371 27.346-4.112 7.635-17.247 14.61-35.987 20.961-55.941 0.416-1.301 0.833-2.585 1.232-3.904 2.62-8.433 5.101-17.143 7.496-26.010 0.538-1.995 1.093-3.887 1.631-5.917 2.742-10.532 5.362-21.308 7.773-32.413 0.156-0.729 0.521-1.371 0.763-2.082 0.243-0.677 0.416-1.388 0.746-2.030 0.087-0.191 0.156-0.382 0.26-0.573 0.295-0.538 0.711-0.954 1.058-1.44 0.087-0.121 0.174-0.243 0.278-0.364 0.399-0.538 0.729-1.128 1.18-1.614 0.104-0.104 0.174-0.226 0.278-0.33v0c0 0 0.017 0 0.017 0 0.052-0.052 0.104-0.087 0.156-0.121 0.486-0.486 1.076-0.85 1.631-1.284 0.121-0.104 0.243-0.191 0.364-0.295 0.451-0.347 0.85-0.763 1.336-1.058 0.191-0.121 0.399-0.191 0.607-0.295 0.399-0.226 0.833-0.382 1.249-0.573 0.399-0.174 0.781-0.278 1.18-0.434 0.538-0.191 1.006-0.503 1.562-0.642 9.977-2.533 19.677-5.153 29.151-7.843 2.152-0.607 4.147-1.232 6.247-1.839 7.426-2.152 14.749-4.338 21.846-6.576 1.822-0.573 3.54-1.145 5.327-1.735 7.392-2.395 14.645-4.824 21.637-7.305 1.215-0.434 2.412-0.85 3.609-1.284 8.034-2.898 15.842-5.83 23.32-8.832 0.017 0 0.035-0.017 0.052-0.017 2.273-14.662 1.128-28.162-3.505-41.054zM966.983 326.502c-9.821-14.141-24.084-17.265-34.321-17.369-0.208 0-0.416 0-0.625 0-19.833 0-39.943 10.758-52.645 28.179-24.015 32.933-66.873 62.205-127.36 87.608-0.104 0.052-0.174 0.156-0.295 0.208-0.677 0.278-1.405 0.538-2.082 0.816-5.258 2.186-10.758 4.321-16.293 6.437-4.789 1.839-9.647 3.661-14.627 5.466-5.067 1.822-10.168 3.644-15.46 5.431-7.253 2.464-14.766 4.841-22.383 7.201-2.863 0.885-5.466 1.822-8.381 2.689 1.405 0.555 3.002 1.093 4.459 1.648 0.521 0.139 1.058 0.017 1.562 0.191 54.137 19.746 146.759 38.85 227.079-16.883 4.147-2.898 8.225-6.229 12.302-9.543 1.961-1.579 3.956-2.932 5.9-4.616 12.32-10.706 24.275-23.425 35.675-38.399l2.204-2.932c0.069-0.087 0.174-0.121 0.226-0.208 5.9-8.068 21.030-32.951 5.067-55.924zM700.62 361.83c-35.501 13.534-68.452 37.861-97.897 72.304-6.229 7.288-17.178 8.138-24.466 1.909s-8.138-17.178-1.909-24.466c33.263-38.902 70.916-66.56 111.917-82.194 2.030-0.763 4.112-1.145 6.177-1.145 6.993 0 13.569 4.268 16.224 11.192 3.401 8.953-1.093 18.983-10.047 22.401z" />
<glyph unicode="&#xe922;" glyph-name="food-3" d="M1003.608 456.58c2.966 32.518 3.088 115.080-59.056 183.388-63.492 69.792-146.736 76.816-188.28 75.286-50.434 88.466-142.812 144.122-241.79 144.122-0.828 0-1.652-0.004-2.48-0.012-0.836 0.006-1.648 0.012-2.48 0.012-98.97 0-191.362-55.66-241.792-144.124-41.556 1.536-124.796-5.502-188.28-75.286-62.14-68.306-62.020-150.872-59.056-183.388-42.4-91.786-17.104-202.704 61.152-261.834 43.608-32.95 98.698-46.66 155.12-38.628 26.604 3.792 51.802 12.204 74.724 24.68 17.254-16.596 43.618-52.23 43.618-115.018v-221.156h313.986v221.158c0 62.786 26.364 98.42 43.618 115.018 22.922-12.474 48.12-20.886 74.722-24.68 10.54-1.5 21.032-2.244 31.416-2.244 45.188 0 88.244 14.076 123.704 40.872 78.256 59.13 103.55 170.048 61.154 261.834zM602.188 65.782v-154.35h-180.374v154.35c0 52.592-14.026 92.26-31.14 121.108 23.906-11.504 52.886-20.13 87.926-23.52v-113.656h66.806v113.656c35.040 3.39 64.020 12.016 87.922 23.52-17.114-28.848-31.14-68.516-31.14-121.108zM902.178 248.048c-29.308-22.142-66.754-31.29-105.42-25.79-30.216 4.306-57.832 17.152-80.23 36.902 28.766 43.458 33.434 84.954 33.884 89.696l-66.51 6.288c-0.030-0.306-3.486-31.276-25.298-62.378-29.876-42.594-79.198-64.19-146.606-64.19-66.226 0-115.032 20.87-145.060 62.030-23.032 31.574-26.83 64.434-26.864 64.762l0.022-0.224-66.51-6.288c0.45-4.74 5.118-46.238 33.884-89.696-22.398-19.75-50.016-32.596-80.23-36.904-38.674-5.504-76.116 3.648-105.42 25.79-55.284 41.774-71.402 122.252-37.492 187.206l5.068 9.71-1.666 10.824c-2.064 13.43-9.788 83.258 41.13 139.226 60.364 66.352 149.052 52.662 152.794 52.058l24.936-4.094 10.72 22.884c36.468 77.844 112.656 127.568 194.324 126.7l0.366-0.010 0.358 0.004c0.712 0.006 1.414 0.012 2.124 0.012 80.774 0 156.052-49.546 192.202-126.708l10.718-22.884 24.936 4.094c3.744 0.612 92.434 14.29 152.794-52.058 50.922-55.976 43.196-125.792 41.132-139.22l-1.666-10.828 5.068-9.712c33.914-64.95 17.798-145.43-37.488-187.202z" />
<glyph unicode="&#xe923;" glyph-name="fruit" d="M1001.257 358.223l-17.431 17.431c-67.278 67.276-173.601 72.191-246.645 14.846-3.463 20.683-9.789 41.101-19.127 60.648-5.531 11.575-19.396 16.476-30.971 10.945-11.575-5.528-16.476-19.398-10.945-30.971 29.526-61.805 21.522-134.481-18.832-188.18-3.41 29.099-15.027 54.641-34.455 74.072-18.051 18.051-40.332 30.026-65.197 35.531l40.279 486.309c0.537 6.472-1.661 12.873-6.060 17.652-4.4 4.776-10.597 7.494-17.092 7.494h-535.612c-6.492 0-12.692-2.718-17.090-7.496s-6.597-11.18-6.060-17.652l80.976-977.519c0.999-12.044 11.064-21.31 23.15-21.31h413.649c0.616-0.005 1.231-0.023 1.847-0.023 16.304 0 32.746 1.628 49.083 4.948 61.42 12.486 107.791 34.047 137.826 64.082 40.040 40.040 67.171 88.623 76.398 136.807 9.854 51.457-1.559 96.632-32.133 127.206-20.29 20.288-47.224 32.102-77.938 34.899 21.371 26.214 36.321 56.423 44.395 88.275 34.339-28.483 76.569-42.755 118.818-42.755 47.705 0 95.41 18.158 131.729 54.476l17.431 17.431c4.355 4.355 6.804 10.265 6.804 16.425 0.007 6.165-2.441 12.072-6.797 16.43zM607.578 190.622l-228.224-228.224c-36.302 45.821-50.86 105.283-39.071 163.267 9.066 44.583 35.735 98.038 62.037 124.337 32.62 32.62 70.346 53.352 106.226 58.374 5.647 0.792 11.187 1.182 16.597 1.182 25.601 0 48.221-8.762 64.853-25.396 20.801-20.799 27.071-54.669 17.582-93.54zM549.55 817.542l-10.058-121.445h-36.764l5.777 75.099c0.983 12.792-8.588 23.958-21.38 24.943-12.776 0.985-23.958-8.588-24.943-21.38l-6.051-78.662h-381.667l-10.060 121.445h485.147zM141.529-113.519l-63.217 763.158h374.246l-7.020-91.257c-0.983-12.792 8.588-23.958 21.38-24.943 0.606-0.046 1.21-0.070 1.807-0.070 12.019 0 22.198 9.264 23.136 21.447l7.294 94.82h36.49l-24.369-294.222c-3.036-0.262-6.093-0.599-9.168-1.029-45.817-6.414-92.92-31.819-132.637-71.533-32.985-32.987-63.708-93.819-74.711-147.933-16.455-80.936 8.664-164.203 67.197-222.744 0.005-0.005 0.009-0.012 0.016-0.016 0.005-0.005 0.012-0.009 0.016-0.014 9.443-9.44 19.538-17.995 30.153-25.663h-250.612zM689.703-58.118c-23.473-23.473-61.907-40.769-114.233-51.408-57.982-11.784-117.445 2.771-163.267 39.071l228.226 228.224c38.869 9.487 72.739 3.22 93.538-17.58 41.749-41.747 21.48-132.563-44.265-198.308zM950.973 340.79c-54.523-54.521-143.236-54.523-197.757 0l-1.006 1.008 1.006 1.006c54.523 54.523 143.239 54.523 197.759 0l1.006-1.006-1.008-1.008zM573.457 78.526l-27.877-27.877c-9.071-9.071-9.071-23.779 0-32.85 4.537-4.537 10.481-6.804 16.425-6.804s11.891 2.269 16.425 6.804l27.877 27.877c9.071 9.071 9.071 23.779 0 32.85s-23.779 9.073-32.85 0zM496.794 155.191l-27.877-27.877c-9.071-9.071-9.073-23.779 0-32.85 4.537-4.537 10.481-6.804 16.425-6.804s11.891 2.269 16.425 6.804l27.877 27.877c9.071 9.071 9.073 23.779 0 32.85s-23.777 9.069-32.85 0zM455.684 387.41c0.606-0.046 1.208-0.070 1.807-0.070 12.019 0 22.198 9.264 23.136 21.447l4.263 55.427c0.983 12.792-8.588 23.958-21.38 24.943-12.776 0.969-23.958-8.588-24.943-21.38l-4.263-55.427c-0.983-12.79 8.588-23.958 21.38-24.941z" />
<glyph unicode="&#xe924;" glyph-name="fruit-1" d="M825.881 552.411c-74.493 58.612-180.006 42.385-263.599 21.694-13.442-3.339-27.23-4.948-41.053-5.553-2.197 11.037-4.93 22.109-8.269 33.095l64.598 9.619c82.746 12.318 146.634 76.206 158.952 158.952l9.532 64.027c0.83 2.232 1.142 4.55 1.021 6.903l3.391 22.853-93.783-13.961c-82.746-12.335-146.634-76.206-158.952-158.952l-5.622-37.766c-19.168 36.797-46.744 68.992-84.787 89.285-8.46 4.515-18.909 1.297-23.424-7.128-4.498-8.442-1.297-18.909 7.128-23.407 52.817-28.164 81.95-85.133 94.683-142.396-8.079 1.021-16.089 2.439-23.995 4.411-83.593 20.691-189.14 36.935-263.599-21.694-66.709-52.505-98.748-156.426-97.918-317.696 0.605-119.145 69.217-256.593 166.858-334.252 64.477-51.294 133.815-70.515 200.402-55.481 29.168 6.574 59.927 6.574 89.077 0 14.74-3.322 29.583-4.965 44.478-4.965 52.523 0 105.685 20.483 155.924 60.446 97.641 77.677 166.235 215.125 166.858 334.252 0.848 161.287-31.192 265.208-97.9 317.713zM572.455 645.502l-15.172-2.266 147.24 147.24-2.266-15.172c-10.034-67.574-62.211-119.75-129.801-129.801zM661.774 815.802l22.507 3.356-155.682-155.682 3.356 22.525c10.051 67.574 62.228 119.733 129.819 129.801zM735.403-72.48c-39.029-31.071-100.374-64.806-171.252-48.786-17.058 3.841-34.6 5.761-52.159 5.761-17.542 0-35.084-1.92-52.142-5.761-70.739-15.985-132.223 17.715-171.252 48.786-88.558 70.463-153.243 199.71-153.796 307.368-0.778 149.904 26.936 244.863 84.7 290.327 48.924 38.492 121.099 43.198 233.912 15.293 12.525-3.097 25.31-4.809 38.164-5.882 0.986-8.858 1.643-17.594 1.92-26.071 0.294-9.359 7.975-16.746 17.265-16.746 0.19 0 0.363 0 0.554 0 9.567 0.311 17.040 8.287 16.746 17.836-0.259 8.010-0.882 16.262-1.73 24.6 14.895 0.865 29.739 2.664 44.253 6.245 112.813 27.887 184.971 23.182 233.912-15.293 57.782-45.464 85.479-140.441 84.7-290.345-0.536-107.606-65.238-236.871-153.796-307.333zM342.383 514.749c-85.86 0-155.699-77.607-155.699-172.999 0-9.55 7.733-17.3 17.3-17.3s17.3 7.75 17.3 17.3c0 76.31 54.339 138.399 121.099 138.399 9.567 0 17.3 7.75 17.3 17.3s-7.733 17.3-17.3 17.3zM561.729 509.68c-14.048-14.048-32.697-21.781-52.505-21.781s-38.492 7.733-52.523 21.781c-6.764 6.764-17.698 6.764-24.462 0s-6.764-17.715 0-24.462c20.57-20.57 47.938-31.918 76.985-31.918s56.398 11.331 76.967 31.918c6.764 6.764 6.764 17.715 0 24.462-6.764 6.764-17.698 6.764-24.462 0z" />
<glyph unicode="&#xe925;" glyph-name="gestures" d="M916.132 393.902c-7.489 12.482-20.024 19.348-35.349 19.348-0.069 0-0.139 0-0.208 0-28.9-0.104-63.677-11.563-90.757-29.888-24.982-16.903-61.198-48.23-91.762-101.644-5.738-10.021-15.152-16.816-25.225-18.429-0.035 2.323-0.017 4.976-0.017 7.489 0 5.357 0.017 11.737-0.208 18.775v383.744c0 38.244-31.102 69.346-69.346 69.346s-69.346-31.102-69.346-69.346v-268.716c0-4.768-3.901-8.668-8.668-8.668s-8.668 3.901-8.668 8.668v390.072c0 38.244-31.102 69.346-69.346 69.346s-69.346-31.102-69.346-69.346v-390.072c0-4.768-3.901-8.668-8.668-8.668s-8.668 3.901-8.668 8.668v312.058c0 33.46-27.218 60.678-60.678 60.678s-60.678-27.218-60.678-60.678v-346.731c0-4.768-3.901-8.668-8.668-8.668s-8.668 3.901-8.668 8.668v216.707c0 33.46-27.218 60.678-60.851 60.678-33.46 0-60.678-27.218-60.678-60.678l0.035-471.502c16.782-242.417 165.477-275.114 308.729-275.114 118.686 0 225.288 58.875 277.853 152.978 6.761 10.922 25.051 39.683 46.739 73.75 54.229 85.192 99.65 156.74 106.36 169.465 14.961 28.328 31.657 50.467 48.265 64.024 15.031 12.274 24.219 27.929 31.691 41.677 3.866 7.16 7.229 33.46-3.866 52.010zM888.602 356.75c-6.935-12.638-13.47-22.538-22.225-29.68-20.457-16.712-39.614-41.833-56.985-74.703-6.605-12.534-65.775-105.51-104.938-167.038-21.809-34.257-40.186-63.14-47.381-74.79-46.826-83.805-141.848-135.884-247.982-135.884-182.762 0-262.18 70.369-274.091 241.637v470.323c0 14.337 11.667 26.005 26.178 26.005 14.337 0 26.005-11.667 26.005-26.005v-216.707c0-23.907 19.434-43.341 43.341-43.341s43.341 19.434 43.341 43.341v346.731c0 14.337 11.667 26.005 26.005 26.005s26.005-11.667 26.005-26.005v-312.058c0-23.907 19.434-43.341 43.341-43.341s43.341 19.434 43.341 43.341v390.072c0 19.122 15.551 34.673 34.673 34.673s34.673-15.551 34.673-34.673v-390.072c0-23.907 19.434-43.341 43.341-43.341s43.341 19.434 43.341 43.341v268.716c0 19.122 15.551 34.673 34.673 34.673s34.673-15.551 34.673-34.673v-384.282c0.225-7.125 0.208-13.141 0.208-18.203-0.035-15.516-0.052-26.716 8.495-35.089 7.16-6.987 16.435-7.42 22.988-7.489 23.595 0.537 46.029 14.441 58.528 36.268 27.236 47.641 59.118 75.31 81.083 90.133 21.359 14.459 49.426 23.855 71.479 23.942 0.017 0 0.052 0 0.069 0 3.71 0 4.56-1.092 5.062-1.734 3.415-4.334 3.571-15.239 2.757-20.093z" />
<glyph unicode="&#xe926;" glyph-name="icon-32846" d="M810.229 456.343l-126.027 252.069c12.747 13.749 20.71 31.995 20.71 52.146 0 42.423-34.319 76.747-76.669 76.747-42.413 0-76.731-34.324-76.731-76.747 0-41.452 32.961-75.034 74.079-76.423l113.954-227.792h-455.010l113.912 227.792c41.112 1.389 74.105 34.966 74.105 76.423 0 42.423-34.355 76.747-76.731 76.747-42.361 0-76.747-34.324-76.747-76.747 0-20.219 8.026-38.46 20.804-52.146l-126.058-252.069h-213.818l221.876-589.643h580.201l221.923 589.643h-213.771zM407.767 94.242v134.575h208.56v-134.575h-208.56zM616.327 31.024v-101.113h-208.56v101.113h208.56zM203.991 93.808l-50.757 134.982h191.353v-134.606h-140.533l-0.063-0.376zM407.767 292.028v101.102h208.56v-101.102h-208.56zM679.539 228.817h191.306l-50.71-134.951v0.371h-140.471v134.575h-0.125zM679.539 292.028v101.102h253.155l-38.021-101.102h-215.134zM344.555 393.131v-101.102h-215.15l-38.026 101.102h253.176zM227.604 31.024h116.92v-101.113h-78.862l-38.058 101.113zM679.539-70.088v101.113h116.92l-38.089-101.113h-78.831z" />
<glyph unicode="&#xe927;" glyph-name="interface" d="M1004.287 683.496h-984.593c-10.87 0-19.694-8.821-19.694-19.691v-623.609c0-10.89 8.823-19.694 19.694-19.694h984.615c10.89 0 19.694 8.801 19.694 19.694v623.609c-0.022 10.89-8.826 19.691-19.716 19.691zM984.593 59.889h-945.208v584.222h945.228v-584.222h-0.019zM174.181 137.361c3.84-3.84 8.881-5.771 13.923-5.771s10.083 1.931 13.923 5.771l183.358 183.358 110.022-110.022c3.84-3.84 8.881-5.771 13.923-5.771s10.083 1.931 13.923 5.771l112.702 112.702 180.681-180.681c3.84-3.84 8.881-5.771 13.923-5.771s10.083 1.931 13.923 5.771c7.699 7.699 7.699 20.147 0 27.846l-180.681 180.681 183.358 183.358c7.699 7.699 7.699 20.147 0 27.846s-20.147 7.699-27.846 0l-309.983-310.002-304.626 304.626c-7.699 7.699-20.147 7.699-27.846 0s-7.699-20.147 0-27.846l180.681-180.7-183.358-183.358c-7.699-7.663-7.699-20.127 0-27.807z" />
<glyph unicode="&#xe928;" glyph-name="library" d="M960.351 785.017l-49.786 62.146-398.563-162.061v-0l-398.566 162.064-49.786-62.146-63.649 25.197v-750.756l512.002-202.628 512.002 202.628v750.756l-63.652-25.2zM69.796 708.938l408.126-161.516v-603.447l-408.126 161.519c0 0 0 603.444 0 603.444zM954.204 105.494l-407.987-161.447v603.444l407.987 161.447v-603.444z" />
<glyph unicode="&#xe929;" glyph-name="link2" d="M977.74 185.317l-170.745 170.745c-29.829 29.833-69.495 46.26-111.682 46.26s-81.854-16.431-111.682-46.26l-12.617-12.617-67.568 67.568 12.617 12.617c29.833 29.829 46.26 69.495 46.26 111.682s-16.431 81.85-46.26 111.682l-170.745 170.745c-61.577 61.581-161.776 61.581-223.361 0l-75.696-75.7c-29.829-29.829-46.26-69.491-46.26-111.682 0-42.188 16.431-81.85 46.26-111.679l170.745-170.745c29.829-29.833 69.491-46.26 111.682-46.26 42.188 0 81.85 16.431 111.679 46.26l12.617 12.617 67.568-67.568-12.617-12.617c-61.581-61.577-61.581-161.776 0-223.361l170.745-170.745c30.792-30.788 71.235-46.184 111.682-46.184 40.443 0 80.89 15.396 111.679 46.184l75.7 75.696c29.833 29.829 46.26 69.495 46.26 111.682s-16.427 81.85-46.26 111.679zM389.899 398.401c-16.352-16.352-38.088-25.356-61.212-25.356s-44.864 9.005-61.216 25.356l-170.745 170.745c-16.352 16.352-25.356 38.092-25.356 61.212 0 23.124 9.005 44.864 25.356 61.216l75.7 75.696c16.879 16.879 39.043 25.317 61.216 25.317 22.164 0 44.341-8.438 61.212-25.313l170.745-170.745c16.352-16.352 25.356-38.092 25.356-61.216s-9.005-44.86-25.356-61.212l-12.617-12.617-76.14 76.14c-13.937 13.937-36.53 13.937-50.467 0s-13.937-36.53 0-50.467l76.14-76.14-12.617-12.617zM927.274 12.423l-75.7-75.7c-33.754-33.754-88.677-33.75-122.428 0v0l-170.745 170.745c-33.754 33.754-33.754 88.677 0 122.428l12.617 12.617 76.144-76.144c6.967-6.967 16.102-10.452 25.233-10.452s18.263 3.485 25.233 10.452c13.937 13.937 13.937 36.53 0 50.467l-76.14 76.14 12.617 12.617c16.352 16.352 38.088 25.356 61.212 25.356s44.86-9.005 61.212-25.356l170.745-170.749c16.352-16.352 25.356-38.088 25.356-61.212 0-23.116-9.005-44.856-25.356-61.208z" />
<glyph unicode="&#xe92a;" glyph-name="link-1" d="M1011.47 631.987l-219.767 219.765c-16.037 16.072-44.499 16.072-60.54 0l-287.314-287.316c-16.698-16.698-16.698-43.807 0-60.538l79.597-79.597-83.45-83.552-79.595 79.525c-16.731 16.731-43.842 16.731-60.538 0l-287.316-287.245c-16.731-16.731-16.731-43.807 0-60.54l219.765-219.765c8.366-8.365 19.335-12.53 30.27-12.53 10.968 0 21.903 4.2 30.268 12.53l287.421 287.247c8.052 8.018 12.53 18.883 12.53 30.27 0 11.385-4.513 22.25-12.53 30.268l-79.7 79.7 83.449 83.554 79.595-79.595c8.366-8.366 19.301-12.531 30.27-12.531 10.935 0 21.903 4.202 30.27 12.531l287.316 287.316c8.017 8.018 12.53 18.883 12.53 30.268 0.037 11.352-4.513 22.216-12.53 30.235zM489.429 170.242l-226.881-226.707-159.192 159.225 226.776 226.707 49.327-49.258-36.448-36.377c-16.698-16.733-16.698-43.808 0-60.54 8.366-8.366 19.403-12.531 30.268-12.531 11.039 0 21.903 4.202 30.27 12.531l36.448 36.379 49.432-49.429zM693.885 374.941l-49.327 49.327 36.1 36.031c16.733 16.731 16.733 43.808 0 60.54-16.73 16.731-43.807 16.731-60.54 0l-36.136-36.031-49.327 49.327 226.779 226.774 159.227-159.192-226.776-226.776z" />
<glyph unicode="&#xe92b;" glyph-name="location" d="M512 864c-191.626 0-347.527-155.899-347.527-347.525 0-77.005 45.336-194.115 142.676-368.549 66.423-119.022 132.54-219.556 135.329-223.791l47.788-72.435c4.818-7.305 12.982-11.701 21.735-11.701s16.917 4.395 21.735 11.701l47.786 72.43c2.762 4.187 68.398 103.851 135.331 223.795 97.34 174.426 142.676 291.536 142.676 368.549 0 191.626-155.901 347.525-347.527 347.525zM671.378 173.304c-66.002-118.266-130.6-216.366-133.323-220.489l-26.055-39.493-26.047 39.483c-2.737 4.156-67.831 103.135-133.331 220.499-90.291 161.805-136.072 277.265-136.072 343.171 0 162.911 132.537 295.448 295.45 295.448s295.45-132.537 295.45-295.448c0-65.915-45.782-181.371-136.072-343.171zM512 711.33c-106.247 0-192.684-86.439-192.684-192.684s86.437-192.684 192.684-192.684 192.684 86.439 192.684 192.684-86.437 192.684-192.684 192.684zM512 378.038c-77.532 0-140.607 63.075-140.607 140.607s63.075 140.607 140.607 140.607c77.534 0 140.607-63.075 140.607-140.607s-63.073-140.607-140.607-140.607z" />
<glyph unicode="&#xe92c;" glyph-name="location2" d="M512 864c-176.736 0-320-143.264-320-320 0-320 320-704 320-704s320 384 320 704c0 176.736-143.264 320-320 320zM512 348c-108.256 0-196 87.744-196 196s87.744 196 196 196 196-87.744 196-196-87.744-196-196-196zM388 544c0 68.48 55.52 124 124 124s124-55.52 124-124c0-68.48-55.52-124-124-124s-124 55.52-124 124z" />
<glyph unicode="&#xe92d;" glyph-name="magnifier" d="M995.866 3.865l-234.921 234.94c-35.003-54.438-81.327-100.738-135.765-135.744l234.94-234.94c37.506-37.498 98.318-37.498 135.744 0 37.508 37.437 37.508 98.248 0.002 135.744zM767.998 480c0 212.059-171.933 384-383.996 384-212.059 0-384-171.942-384-384s171.942-383.992 384-383.992c212.063 0 383.996 171.933 383.996 383.992zM384.002 192.011c-158.813 0-287.998 129.174-287.998 287.987s129.185 287.998 287.998 287.998c158.809 0 288.004-129.185 288.004-287.998s-129.195-287.987-288.004-287.987zM160.005 480h63.992c0 88.222 71.784 159.999 160.003 159.999v63.998c-123.495 0-223.995-100.5-223.995-223.997z" />
<glyph unicode="&#xe92e;" glyph-name="magnifier-tool" d="M767.998 480c0 212.059-171.933 384-383.996 384-212.059 0-384-171.942-384-384s171.942-383.992 384-383.992c212.063 0 383.996 171.933 383.996 383.992zM384.002 192.011c-158.813 0-287.998 129.174-287.998 287.987s129.185 287.998 287.998 287.998c158.809 0 288.004-129.185 288.004-287.998s-129.195-287.987-288.004-287.987zM995.866 3.865l-234.921 234.94c-35.003-54.438-81.327-100.738-135.765-135.744l234.94-234.94c37.506-37.498 98.318-37.498 135.744 0 37.508 37.437 37.508 98.248 0.002 135.744z" />
<glyph unicode="&#xe92f;" glyph-name="magnifying-glass" d="M990-68.4l-235.6 235.6c58.4 71.2 93.6 162.4 93.6 261.8 0 228-185 413-413 413-228.2 0-413-185-413-413s184.8-413 413-413c99.4 0 190.4 35 261.6 93.4l235.6-235.4c16-16 41.8-16 57.8 0 16 15.8 16 41.8 0 57.6zM435 98.2c-182.6 0-331 148.4-331 330.8s148.4 331 331 331c182.4 0 331-148.6 331-331s-148.6-330.8-331-330.8z" />
<glyph unicode="&#xe930;" glyph-name="magnifying-glass-1" d="M683.841 746.832c-156.213 156.213-410.46 156.213-566.673 0-156.179-156.246-156.179-410.46 0-566.707 139.111-139.078 355.77-153.978 511.881-45.377 3.285-15.543 10.802-30.376 22.892-42.465l227.495-227.495c33.152-33.085 86.725-33.085 119.708 0 33.119 33.119 33.119 86.691 0 119.708l-227.495 227.563c-12.022 11.988-26.888 19.539-42.431 22.824 108.668 156.145 93.768 372.77-45.377 511.949zM612.016 251.95c-116.626-116.626-306.431-116.626-423.024 0-116.558 116.626-116.558 306.397 0 423.024 116.592 116.592 306.397 116.592 423.024 0 116.626-116.626 116.626-306.397 0-423.024z" />
<glyph unicode="&#xe931;" glyph-name="meter" d="M512 800c282.784 0 512-229.216 512-512 0-192.8-106.592-360.672-264-448h-495.968c-157.44 87.328-264 255.2-264 448 0 282.784 229.216 512 512 512zM801.92-1.92c77.44 77.44 120.096 180.384 120.096 289.92h-90.016v64h85.024c-7.008 44.992-21.376 88.16-42.56 128h-106.464v64h64.288c-9.44 11.776-19.552 23.104-30.368 33.92-46.208 46.208-101.536 80.032-161.92 99.808v-69.696h-64v85.056c-20.992 3.264-42.368 4.96-64 4.96s-43.008-1.696-64-4.96v-85.056h-64v69.696c-60.384-19.744-115.68-53.568-161.92-99.808-10.816-10.816-20.928-22.144-30.368-33.92h64.288v-64h-106.464c-21.184-39.84-35.552-83.008-42.56-128h85.024v-64h-90.016c0-109.504 42.656-212.48 120.096-289.92 10.72-10.72 21.92-20.736 33.568-30.080h192.352l36.576 512h54.848l36.576-512h192.352c11.648 9.344 22.848 19.392 33.568 30.080z" />
<glyph unicode="&#xe932;" glyph-name="meter2" d="M512 864c-282.784 0-512-229.216-512-512s229.216-512 512-512 512 229.216 512 512-229.216 512-512 512zM302.848 29.856c11.104 30.624 17.152 63.68 17.152 98.144 0 124.352-78.816 230.304-189.216 270.592 10.208 84.928 48.256 163.488 109.664 224.928 72.544 72.512 168.96 112.48 271.52 112.48s199.008-39.936 271.52-112.48c61.44-61.44 99.456-140 109.696-224.928-110.4-40.32-189.216-146.24-189.216-270.592 0-34.464 6.048-67.52 17.152-98.144-61.696-40.256-133.76-61.856-209.152-61.856s-147.456 21.6-209.152 61.856zM551.744 223.008c13.888-3.488 24.256-16.096 24.256-31.008v-64c0-17.6-14.4-32-32-32h-64c-17.6 0-32 14.4-32 32v64c0 14.912 10.368 27.52 24.256 31.008l23.744 448.992h32l23.744-448.992z" />
</font>
</defs>
</svg>
